<svg id="Layer_1" data-name="Layer 1" xmlns="http://www.w3.org/2000/svg" width="30px" height="30px" viewBox="0 0 31.06 31.41"><defs><style>.cls-1{fill:#333;}</style></defs><path class="cls-1" d="M15.63.74a15,15,0,1,0,15,15A15,15,0,0,0,15.63.74Zm0,27.5a12.5,12.5,0,1,1,12.5-12.5A12.5,12.5,0,0,1,15.63,28.24Z"/><path class="cls-1" d="M22.54,11.9H8.73a.77.77,0,1,0,0,1.53h3.06c.88,0,1.54.3,1.54,1.54,0,3.57-2.44,7.82-3,9a.69.69,0,0,0,.6,1,1.1,1.1,0,0,0,.93-.66c.69-1.05,1.5-2.3,2.24-3.47.34-.55.79-1.23,1.51-1.24h0c.74,0,1.19.68,1.54,1.24.74,1.17,1.54,2.42,2.23,3.47.24.37.5.66.93.66a.69.69,0,0,0,.6-1c-.56-1.18-3-5.43-3-9,0-1.24.66-1.54,1.54-1.54h3.07a.77.77,0,0,0,0-1.53Z"/><circle class="cls-1" cx="15.63" cy="8.83" r="2.3"/></svg>