<svg id="iconmonstr" xmlns="http://www.w3.org/2000/svg" viewBox="0 0 20 20.26"><defs><style>.cls-1{fill:#fff;}</style></defs><rect class="cls-1" x="13" y="9.96" width="2" height="2"/><rect class="cls-1" x="9" y="9.96" width="2" height="2"/><path class="cls-1" d="M15.83,3.6a.88.88,0,0,0,.84-.9V.9A.84.84,0,1,0,15,.9V2.7A.87.87,0,0,0,15.83,3.6Z"/><path class="cls-1" d="M4.17,3.6A.87.87,0,0,0,5,2.7V.9A.86.86,0,0,0,4.17,0a.87.87,0,0,0-.84.9V2.7A.88.88,0,0,0,4.17,3.6Z"/><rect class="cls-1" x="13" y="13.96" width="2" height="2"/><rect class="cls-1" x="5" y="13.96" width="2" height="2"/><path class="cls-1" d="M17.5,1.93v.83a1.67,1.67,0,1,1-3.33,0V1.93H5.83v.83a1.67,1.67,0,1,1-3.33,0V1.93H0V20.26H20V1.93Zm.48,16H2V8.06H18Z"/><rect class="cls-1" x="5" y="9.96" width="2" height="2"/><rect class="cls-1" x="9" y="13.96" width="2" height="2"/></svg>