<svg xmlns="http://www.w3.org/2000/svg" width="151.835" height="20.802" viewBox="0 0 151.835 20.802"><g transform="translate(0 0)"><g transform="translate(37.015 4.765)"><g transform="translate(69.708 0.091)"><path d="M1170.2,6132.987l.055,0h3.792v-2.427h-3.9a6.473,6.473,0,0,0-3.836,1.091l0-.015a5.7,5.7,0,0,0-1.005.943,5.562,5.562,0,0,0-1.323,3.648c0,.018,0,.035,0,.053s0,.029,0,.045a5.576,5.576,0,0,0,1.132,3.411l.053.07.021.026a6.038,6.038,0,0,0,4.849,2.252l.043,0,.072,0h3.9v-2.519h-3.792l-.055,0a3.1,3.1,0,0,1-3.124-3.154l.007-.01c0-.039,0-.078-.005-.118s0-.057,0-.085l-.008-.01A3.1,3.1,0,0,1,1170.2,6132.987Z" transform="translate(-1163.978 -6130.557)" fill="#333333"/></g><g transform="translate(22.794 0.081)"><path d="M1116.779,6142.08l-1.679-3.192h-2.237v3.192h-3.011v-11.534h5.182c3.061,0,4.8,1.481,4.8,4.047a3.9,3.9,0,0,1-2.057,3.718l2.4,3.768Zm-3.916-5.594h2.188a1.685,1.685,0,0,0,1.925-1.793c0-1.135-.707-1.744-1.925-1.744h-2.188Z" transform="translate(-1109.852 -6130.546)" fill="#333333"/></g><g transform="translate(33.292 0.081)"><path d="M1135.25,6130.546l-5.55,2.485h-1.3v9.049h-3.011v-9.049h-3.422v-2.485Z" transform="translate(-1121.964 -6130.546)" fill="#333333"/></g><g transform="translate(41.977 0.081)"><path d="M1142.572,6142.08l-1.678-3.192h-2.238v3.192h-3.01v-7.687h-3.662l8.409-3.847h.435c3.06,0,4.8,1.481,4.8,4.047a3.9,3.9,0,0,1-2.057,3.718l2.4,3.768Zm-3.916-5.594h2.189a1.685,1.685,0,0,0,1.925-1.793c0-1.135-.707-1.744-1.925-1.744h-2.189Z" transform="translate(-1131.984 -6130.546)" fill="#333333"/></g><g transform="translate(56.399)"><path d="M1161.095,6136.292a6.244,6.244,0,0,1-12.471,0c0-3.356,2.665-5.84,6.235-5.84A5.9,5.9,0,0,1,1161.095,6136.292Zm-9.377.017a3.254,3.254,0,0,0,3.175,3.324,3.31,3.31,0,1,0-3.175-3.324Z" transform="translate(-1148.624 -6130.452)" fill="#333333"/></g><g transform="translate(81.026 0.081)"><path d="M1184.522,6142.08l-2.994-4.458-1.481,1.645v2.814h-3.01v-11.534h3.01v4.837l4.328-4.837h3.488l-4.278,4.771,4.542,6.763Z" transform="translate(-1177.037 -6130.546)" fill="#333333"/></g><g transform="translate(92.744 0.082)"><path d="M1190.556,6130.547v11.533h9.263v-2.4h-6.252v-2.187h5.5V6135.1h-5.5v-2.073h8.943v9.049h3.011v-9.049h3.455v-2.484Z" transform="translate(-1190.556 -6130.547)" fill="#333333"/></g><g transform="translate(112.088 0.081)"><path d="M1214,6130.777h-.421v1.146h-.284v-1.146h-.416v-.23H1214Z" transform="translate(-1212.874 -6130.546)" fill="#333333"/><g transform="translate(1.284)"><path d="M1214.725,6130.546l.354,1,.352-1h.373v1.376h-.284v-.375l.028-.65-.371,1.026h-.195l-.371-1.025.029.649v.375h-.283v-1.376Z" transform="translate(-1214.355 -6130.546)" fill="#333333"/></g></g><g transform="translate(0 0.081)"><path d="M1100.885,6130.546h-3.093l-3.87,9.015h-4.094l-.055,0a3.1,3.1,0,0,1-3.124-3.154l.007-.01c0-.039,0-.078-.005-.118s0-.057,0-.085l-.007-.01a3.1,3.1,0,0,1,3.125-3.2l.055,0h3.792v-2.427h-3.9a6.473,6.473,0,0,0-3.836,1.091l0-.015a5.65,5.65,0,0,0-1.005.942,5.557,5.557,0,0,0-1.324,3.648c0,.018,0,.035,0,.053s0,.029,0,.045a5.572,5.572,0,0,0,1.132,3.411l.053.07.021.026a5.984,5.984,0,0,0,4.485,2.242v.01h6.688l3.324-8.457,2.287,5.938h-2.263l-.809,2.519h7.25Z" transform="translate(-1083.554 -6130.546)" fill="#333333"/></g></g><g transform="translate(19.264 17.205)"><circle cx="1.799" cy="1.799" r="1.799" fill="#333333"/></g><g transform="translate(28.751 12.88)"><circle cx="1.799" cy="1.799" r="1.799" fill="#333333"/></g><g transform="translate(0 9.751)"><g transform="translate(0 7.251)"><path d="M1040.848,6146.308a3.942,3.942,0,0,0,3.87-.909,3.7,3.7,0,0,1,2.141-.821,3.815,3.815,0,0,1,2.3.577,4.219,4.219,0,0,0-3.064,1.127,4.164,4.164,0,0,1-2.833.9A3.984,3.984,0,0,1,1040.848,6146.308Z" transform="translate(-1040.848 -6144.569)" fill="#333333"/></g><g transform="translate(3.083)"><path d="M1057.349,6142.144l.037-.059a3.813,3.813,0,0,0-3.184-5.877,2.529,2.529,0,0,0-.667.054,3.8,3.8,0,0,0-1.071.352,9.253,9.253,0,0,0-1.728,1.026,3.84,3.84,0,0,1-3.451.594,4.291,4.291,0,0,0,4.439.456c.344-.132.871-.422,1.238-.061a.58.58,0,0,1,.057.722,1.372,1.372,0,0,1-.6.459c-2.077.986-4.618-.056-6.543,1.376a3.764,3.764,0,0,0-1.473,2.406,4.008,4.008,0,0,1,2.31-1.221,5.936,5.936,0,0,1,1.953.153,14.8,14.8,0,0,1,2.6.951,6.255,6.255,0,0,0,3.378.412,3.936,3.936,0,0,0,2.654-1.671Z" transform="translate(-1044.405 -6136.205)" fill="#333333"/></g></g><g transform="translate(12.426)"><path d="M1060.423,6130.553l-.648-1.411a1.306,1.306,0,0,0-1.732-.642l-2.859,1.313.65,1.376,1.582-.713.611,1.3,3.229,6.933a2.661,2.661,0,0,1-.414,3.19l12.077-5.55a2.316,2.316,0,0,0,1.35-2.1v-7.924a1.367,1.367,0,0,0-1.937-1.241Zm11.127-2.09v1.954l-9.188,4.222-.76-1.62Zm-7.814,9.106-.823-1.756,8.637-3.969v1.52a.96.96,0,0,1-.559.872Z" transform="translate(-1055.184 -6124.954)" fill="#333333"/></g></g></svg>