<svg xmlns="http://www.w3.org/2000/svg" xmlns:xlink="http://www.w3.org/1999/xlink" width="88" height="88" viewBox="0 0 88 88"><defs><style>.a{clip-path:url(#b);}.b{fill:#fff;}.c{fill:#143157;}.d{fill:#e97324;}</style><clipPath id="b"><rect width="88" height="88"/></clipPath></defs><g id="a" class="a"><g transform="translate(12.547 12.549)"><rect class="b" width="54.632" height="54.631" transform="translate(4.362 4.191)"/><g transform="translate(0)"><path class="c" d="M434.652,1349.883v49.073H385.579v-49.073h49.073m.641-6.917H384.935a6.27,6.27,0,0,0-6.272,6.272V1399.6a6.27,6.27,0,0,0,6.272,6.272h50.358a6.273,6.273,0,0,0,6.275-6.272v-50.358a6.273,6.273,0,0,0-6.275-6.272Z" transform="translate(-378.663 -1342.966)"/><g transform="translate(16.467 16.293)"><rect class="d" width="29.97" height="8.452"/><g transform="translate(0 10.861)"><rect class="d" width="21.142" height="8.452"/></g><g transform="translate(0 21.865)"><rect class="d" width="29.97" height="8.452"/></g></g></g></g></g></svg>