<?xml version="1.0" encoding="utf-8"?>
<!-- Generator: Adobe Illustrator 26.0.1, SVG Export Plug-In . SVG Version: 6.00 Build 0)  -->
<svg version="1.1" id="Layer_1" xmlns="http://www.w3.org/2000/svg" xmlns:xlink="http://www.w3.org/1999/xlink" x="0px" y="0px"
	 width="16px" height="16px" viewBox="0 0 16 16" style="enable-background:new 0 0 16 16;" xml:space="preserve">
<style type="text/css">
	.st0{enable-background:new    ;}
	.st1{fill:#333333;}
</style>
<g class="st0">
	<path class="st1" d="M15,5.2c0,0.6,0,1.6,0,2.9c0,1.4,0,2.3,0,2.9s-0.1,1.1-0.3,1.5c-0.2,0.5-0.5,1-0.9,1.4
		c-0.4,0.4-0.8,0.7-1.4,0.9c-0.4,0.1-1,0.2-1.5,0.3s-1.6,0-2.9,0c-1.4,0-2.3,0-2.9,0S4,15,3.6,14.8c-0.5-0.2-1-0.4-1.4-0.8
		s-0.7-0.8-0.9-1.4c-0.1-0.4-0.2-1-0.3-1.5s0-1.6,0-2.9c0-1.4,0-2.3,0-2.9s0.1-1.1,0.3-1.5c0.2-0.5,0.5-1,0.9-1.4s0.8-0.7,1.4-0.9
		c0.4-0.1,1-0.2,1.5-0.3s1.6,0,2.9,0c1.4,0,2.3,0,2.9,0s1.1,0.1,1.5,0.3c0.5,0.2,1,0.5,1.4,0.9c0.4,0.4,0.7,0.8,0.9,1.4
		C14.9,4.1,15,4.6,15,5.2z M13.5,12.3c0.1-0.4,0.2-0.9,0.3-1.7c0-0.5,0-1.1,0-1.9v-1c0-0.9,0-1.5,0-1.9c0-0.8-0.1-1.4-0.3-1.7
		c-0.3-0.6-0.7-1.1-1.3-1.3c-0.3-0.1-0.9-0.2-1.7-0.3c-0.5,0-1.1,0-1.9,0h-1c-0.8,0-1.5,0-1.9,0C4.9,2.5,4.3,2.6,4,2.7
		C3.3,2.9,2.9,3.4,2.6,4C2.5,4.4,2.4,4.9,2.4,5.7c0,0.5,0,1.1,0,1.9v1c0,0.8,0,1.5,0,1.9c0,0.8,0.1,1.3,0.3,1.7
		c0.3,0.6,0.7,1.1,1.3,1.3c0.4,0.1,0.9,0.2,1.7,0.3c0.5,0,1.1,0,1.9,0h1c0.9,0,1.5,0,1.9,0c0.8,0,1.4-0.1,1.7-0.3
		C12.9,13.3,13.3,12.9,13.5,12.3z M8.1,4.6c0.6,0,1.2,0.2,1.8,0.5c0.6,0.3,1,0.8,1.3,1.3c0.3,0.6,0.5,1.2,0.5,1.8s-0.2,1.2-0.5,1.8
		c-0.3,0.6-0.8,1-1.3,1.3c-0.6,0.3-1.2,0.5-1.8,0.5s-1.2-0.2-1.8-0.5s-1-0.8-1.3-1.3S4.5,8.8,4.5,8.1S4.6,6.9,5,6.4s0.8-1,1.3-1.3
		S7.4,4.6,8.1,4.6z M8.1,10.5c0.6,0,1.2-0.2,1.7-0.7c0.5-0.5,0.7-1,0.7-1.7S10.2,7,9.7,6.5C9.3,6,8.7,5.8,8.1,5.8S6.9,6,6.4,6.5
		s-0.7,1-0.7,1.7S6,9.3,6.4,9.8S7.4,10.5,8.1,10.5z M12.7,4.4c0-0.2-0.1-0.4-0.3-0.6c-0.2-0.2-0.4-0.3-0.6-0.3
		c-0.2,0-0.4,0.1-0.6,0.3C11.1,4,11,4.2,11,4.4s0.1,0.4,0.3,0.6c0.2,0.2,0.4,0.3,0.6,0.3c0.2,0,0.4-0.1,0.6-0.3S12.7,4.6,12.7,4.4z"
		/>
</g>
</svg>
