<?xml version="1.0" encoding="utf-8"?>
<!-- Generator: Adobe Illustrator 26.0.1, SVG Export Plug-In . SVG Version: 6.00 Build 0)  -->
<svg version="1.1" id="Layer_1" xmlns="http://www.w3.org/2000/svg" xmlns:xlink="http://www.w3.org/1999/xlink" x="0px" y="0px"
	 width="16px" height="16px" viewBox="0 0 16 16" style="enable-background:new 0 0 16 16;" xml:space="preserve">
<style type="text/css">
	.st0{enable-background:new    ;}
	.st1{fill:#333333;}
</style>
<g class="st0">
	<path class="st1" d="M14,1.1c0.3,0,0.5,0.1,0.7,0.3C14.9,1.6,15,1.9,15,2.1v12c0,0.3-0.1,0.5-0.3,0.7c-0.2,0.2-0.4,0.3-0.7,0.3H2
		c-0.3,0-0.5-0.1-0.7-0.3S1,14.4,1,14.2v-12c0-0.3,0.1-0.5,0.3-0.7S1.7,1.1,2,1.1H14z M4.2,5.6c0.3,0,0.6-0.1,0.9-0.4
		s0.4-0.5,0.4-0.8S5.3,3.7,5,3.5S4.5,3.1,4.2,3.1S3.6,3.3,3.3,3.5S3,4,3,4.4S3.1,5,3.3,5.2S3.8,5.6,4.2,5.6z M5.2,13.2L5.2,13.2
		l0-6.7H3.1v6.7H5.2z M13,13.2V9.5c0-1-0.1-1.8-0.4-2.3c-0.4-0.6-1.1-0.9-2-0.9c-0.5,0-0.9,0.1-1.3,0.3C8.9,6.8,8.7,7.1,8.5,7.4h0
		V6.5h-2v6.7h2.1V9.8c0-0.5,0.1-0.9,0.2-1.2c0.2-0.4,0.6-0.5,1-0.5c0.5,0,0.8,0.2,0.9,0.6c0.1,0.3,0.2,0.6,0.2,1.2v3.3H13z"/>
</g>
</svg>
