<svg xmlns="http://www.w3.org/2000/svg" width="132.006" height="23.997" viewBox="0 0 132.006 23.997"><g transform="translate(0 0)"><g transform="translate(26.365 5.503)"><path d="M806.506,6142.236a6.137,6.137,0,0,1-1.325-1.966c-.042-.1-.081-.2-.119-.3h-3.7v-9.977h-2.391v12.282h7.581Z" transform="translate(-798.966 -6129.531)" fill="#333333"/><path d="M816.41,6138.319a4.681,4.681,0,0,1-.363,1.852,4.529,4.529,0,0,1-1,1.477,4.8,4.8,0,0,1-1.491.984,4.678,4.678,0,0,1-1.825.36,4.621,4.621,0,0,1-1.817-.36,4.738,4.738,0,0,1-1.483-.992,4.638,4.638,0,0,1-1.363-3.321,4.525,4.525,0,0,1,.371-1.822,4.8,4.8,0,0,1,1.006-1.491,4.635,4.635,0,0,1,1.484-1,4.54,4.54,0,0,1,1.8-.361,4.635,4.635,0,0,1,1.825.361,4.755,4.755,0,0,1,1.491.984,4.493,4.493,0,0,1,1,1.482A4.706,4.706,0,0,1,816.41,6138.319Zm-2.18,0a2.838,2.838,0,0,0-.2-1.061,2.784,2.784,0,0,0-.536-.861,2.447,2.447,0,0,0-.792-.576,2.342,2.342,0,0,0-1.932,0,2.446,2.446,0,0,0-.792.576,2.785,2.785,0,0,0-.536.861,2.972,2.972,0,0,0,0,2.122,2.791,2.791,0,0,0,.536.861,2.471,2.471,0,0,0,.792.577,2.352,2.352,0,0,0,1.932,0,2.471,2.471,0,0,0,.792-.577,2.79,2.79,0,0,0,.536-.861A2.84,2.84,0,0,0,814.23,6138.319Z" transform="translate(-800.046 -6130.019)" fill="#333333"/><path d="M827.083,6141.424a4.345,4.345,0,0,1-1.6,1.168,4.966,4.966,0,0,1-1.968.4,4.64,4.64,0,0,1-1.8-.353,4.5,4.5,0,0,1-1.471-.977,4.546,4.546,0,0,1-.985-1.482,4.755,4.755,0,0,1-.361-1.86,4.66,4.66,0,0,1,.361-1.837,4.729,4.729,0,0,1,.977-1.483,4.478,4.478,0,0,1,1.463-.992,4.574,4.574,0,0,1,1.816-.361,4.96,4.96,0,0,1,1.9.369,4.217,4.217,0,0,1,1.567,1.122l-1.7,1.252a2.906,2.906,0,0,0-.582-.468,2.184,2.184,0,0,0-1.158-.292,2.147,2.147,0,0,0-.946.215,2.653,2.653,0,0,0-.788.577,2.681,2.681,0,0,0-.537.854,2.874,2.874,0,0,0,0,2.09,2.758,2.758,0,0,0,.53.853,2.523,2.523,0,0,0,.787.576,2.2,2.2,0,0,0,.953.216,2.26,2.26,0,0,0,1.181-.316,2.6,2.6,0,0,0,.646-.536Z" transform="translate(-801.621 -6130.019)" fill="#333333"/><path d="M836.591,6142.762h-2.179v-.477a3.61,3.61,0,0,1-1.219.553,5.707,5.707,0,0,1-1.324.153,3.288,3.288,0,0,1-1.151-.191,2.584,2.584,0,0,1-.893-.554,2.491,2.491,0,0,1-.583-.853,2.82,2.82,0,0,1-.2-1.092,2.579,2.579,0,0,1,.325-1.314,2.835,2.835,0,0,1,.886-.937,4.075,4.075,0,0,1,1.309-.561,6.734,6.734,0,0,1,1.612-.184h1.257a1.61,1.61,0,0,0-.5-1.245,2.047,2.047,0,0,0-1.438-.461,2.834,2.834,0,0,0-.939.169,2.563,2.563,0,0,0-.727.41l-1.528-1.117a5.06,5.06,0,0,1,3.5-1.414,4.227,4.227,0,0,1,1.617.292,3.253,3.253,0,0,1,1.145.753,3.321,3.321,0,0,1,.8,1.307,6.128,6.128,0,0,1,.232,1.844Zm-2.179-2.214V6138.9h-1a5.718,5.718,0,0,0-.855.062,2.387,2.387,0,0,0-.7.207,1.3,1.3,0,0,0-.47.377.891.891,0,0,0-.173.553.928.928,0,0,0,.355.753,1.4,1.4,0,0,0,.916.292,3.132,3.132,0,0,0,.961-.153A4.651,4.651,0,0,0,834.412,6140.548Z" transform="translate(-802.973 -6130.019)" fill="#333333"/><path d="M854.043,6142.272h-2.583l-.861-2.8a4.642,4.642,0,0,0-.34-.847,2.634,2.634,0,0,0-.491-.661,2.015,2.015,0,0,0-.686-.43,2.638,2.638,0,0,0-.944-.155h-.876v4.889h-2.316v-12.282l4.775-.016a3.791,3.791,0,0,1,1.435.269,3.46,3.46,0,0,1,1.148.746,3.418,3.418,0,0,1,.756,1.122,3.572,3.572,0,0,1,.272,1.4,3.355,3.355,0,0,1-.166,1.045,3.572,3.572,0,0,1-.466.938,3.658,3.658,0,0,1-.714.762,3,3,0,0,1-.91.5,2.3,2.3,0,0,1,.933.623,3.049,3.049,0,0,1,.572.976q.105.261.195.522l.188.545.211.615c.075.22.158.464.248.729.111.338.215.628.31.869A4.39,4.39,0,0,0,854.043,6142.272Zm-3.057-8.593a1.876,1.876,0,0,0-.159-.783,1.921,1.921,0,0,0-1.075-1.023,2.163,2.163,0,0,0-.795-.146h-1.7v3.828h1.7a2.379,2.379,0,0,0,.795-.131,1.884,1.884,0,0,0,.644-.376,1.8,1.8,0,0,0,.431-.592A1.832,1.832,0,0,0,850.986,6133.679Z" transform="translate(-805.093 -6129.528)" fill="#333333"/><path d="M864.927,6138.3c0,.144-.008.292-.023.446s-.033.313-.053.477h-6.994a3.094,3.094,0,0,0,.341.731,2.438,2.438,0,0,0,.537.6,2.541,2.541,0,0,0,.719.4,2.567,2.567,0,0,0,.886.146,3.555,3.555,0,0,0,1.18-.208,3.162,3.162,0,0,0,.733-.364l1.629,1.2a6.1,6.1,0,0,1-1.779.977,5.891,5.891,0,0,1-1.839.284,4.591,4.591,0,0,1-1.839-.368,4.625,4.625,0,0,1-2.475-2.483,4.674,4.674,0,0,1,1-5.127,4.83,4.83,0,0,1,1.484-1,4.5,4.5,0,0,1,1.816-.369,4.64,4.64,0,0,1,1.772.345,4.811,4.811,0,0,1,1.5.961,4.52,4.52,0,0,1,1.029,1.468A4.6,4.6,0,0,1,864.927,6138.3Zm-2.286-.861a2.666,2.666,0,0,0-.916-1.36,2.359,2.359,0,0,0-1.491-.515,2.306,2.306,0,0,0-1.468.515,2.685,2.685,0,0,0-.908,1.36Z" transform="translate(-806.511 -6130.019)" fill="#333333"/><path d="M875.275,6133.912l-3.285,8.9h-2.15l-3.3-8.9h2.391l1.983,5.965,1.983-5.965Z" transform="translate(-807.97 -6130.053)" fill="#333333"/><path d="M879.848,6131.767h-2.27v-2.307h2.27Zm-.029,10.438h-2.21v-8.9h2.21Z" transform="translate(-809.441 -6129.46)" fill="#333333"/><path d="M891.284,6138.3a4.421,4.421,0,0,1-.023.446c-.015.154-.033.313-.053.477h-6.993a3.091,3.091,0,0,0,.341.731,2.423,2.423,0,0,0,.537.6,2.528,2.528,0,0,0,.719.4,2.563,2.563,0,0,0,.886.146,3.556,3.556,0,0,0,1.181-.208,3.153,3.153,0,0,0,.732-.364l1.629,1.2a6.076,6.076,0,0,1-1.779.977,5.887,5.887,0,0,1-1.839.284,4.583,4.583,0,0,1-1.838-.368,4.625,4.625,0,0,1-2.475-2.483,4.674,4.674,0,0,1,1-5.127,4.836,4.836,0,0,1,1.483-1,4.5,4.5,0,0,1,1.817-.369,4.635,4.635,0,0,1,1.771.345,4.8,4.8,0,0,1,1.5.961,4.509,4.509,0,0,1,1.03,1.468A4.6,4.6,0,0,1,891.284,6138.3Zm-2.286-.861a2.67,2.67,0,0,0-.915-1.36,2.361,2.361,0,0,0-1.491-.515,2.311,2.311,0,0,0-1.469.515,2.684,2.684,0,0,0-.907,1.36Z" transform="translate(-810.023 -6130.019)" fill="#333333"/><path d="M906.136,6133.894l-2.937,8.917h-1.892l-1.74-5.3-1.741,5.3h-1.892l-2.952-8.917h2.3l1.65,5.565,1.649-5.565h1.938l1.665,5.565,1.65-5.565Z" transform="translate(-811.494 -6130.051)" fill="#333333"/><path d="M915.49,6140.272a2.265,2.265,0,0,1-.3,1.175,2.764,2.764,0,0,1-.789.861,3.6,3.6,0,0,1-1.092.522,4.262,4.262,0,0,1-1.2.177,4.49,4.49,0,0,1-1.844-.375,3.847,3.847,0,0,1-1.479-1.208l1.516-1.118a2.9,2.9,0,0,0,.709.558,2.251,2.251,0,0,0,1.105.284,1.719,1.719,0,0,0,.855-.192.622.622,0,0,0,.341-.577.78.78,0,0,0-.485-.668,7.006,7.006,0,0,0-1.363-.53,6.412,6.412,0,0,1-1-.392,3.663,3.663,0,0,1-.862-.585,2.77,2.77,0,0,1-.606-.791,2.247,2.247,0,0,1-.227-1.031,2.282,2.282,0,0,1,.3-1.16,2.715,2.715,0,0,1,.773-.861,3.671,3.671,0,0,1,1.085-.53,4.2,4.2,0,0,1,1.229-.184,4.062,4.062,0,0,1,3.277,1.537l-1.5,1.111a2.906,2.906,0,0,0-.667-.527,2.094,2.094,0,0,0-1.059-.277,1.788,1.788,0,0,0-.417.053,1.827,1.827,0,0,0-.408.154.909.909,0,0,0-.31.261.592.592,0,0,0-.121.362q0,.353.462.615a6.714,6.714,0,0,0,1.324.522,6.075,6.075,0,0,1,1.059.43,4.14,4.14,0,0,1,.878.607,2.7,2.7,0,0,1,.6.784A2.182,2.182,0,0,1,915.49,6140.272Z" transform="translate(-813.597 -6130.019)" fill="#333333"/><rect width="2.225" height="12.283" transform="translate(35.53 0.462)" fill="#333333"/><g transform="translate(102.229 0.489)"><path d="M917.484,6131.79v-1.558h-.573v-.208h1.378v.208h-.576v1.558Z" transform="translate(-916.911 -6130.024)" fill="#333333"/><path d="M918.933,6131.79v-1.766h.347l.412,1.25c.037.117.065.2.082.262.02-.064.051-.159.093-.284l.417-1.228h.309v1.766h-.222v-1.478l-.505,1.478h-.208l-.5-1.5v1.5Z" transform="translate(-917.18 -6130.024)" fill="#333333"/></g></g><path d="M785.92,6126.887l-1.807,5.562h-7.146l5.78,4.2-3.547,10.917.022.045c3.073-3.192,8.914-8.937,8.914-14.319A9.949,9.949,0,0,0,785.92,6126.887Z" transform="translate(-769.67 -6123.614)" fill="#333333"/><path d="M779.755,6136.754l-8.808-6.4h10.887l1.7-5.227a9.047,9.047,0,0,0-5.751-2.017c-5.155,0-9.233,4.116-9.233,9.677,0,4.925,4.959,10.235,8.108,13.5Z" transform="translate(-768.548 -6123.111)" fill="#333333"/></g></svg>