<svg xmlns="http://www.w3.org/2000/svg" xmlns:xlink="http://www.w3.org/1999/xlink" width="88" height="88" viewBox="0 0 88 88"><defs><style>.a{clip-path:url(#b);}.b{fill:#fff;}.c{fill:#e97324;}.d{fill:#143157;}</style><clipPath id="b"><rect width="88" height="88"/></clipPath></defs><g id="a" class="a"><g transform="translate(12.122 10.435)"><path class="b" d="M362.869,1160.764l-28.939,19.505V1201.6l28.942,20.107,28.643-20.3v-21.124Z" transform="translate(-330.993 -1158.074)"/><path class="c" d="M350.957,1163.26l2.684,8.261h8.686l-7.027,5.106,2.684,8.261-7.027-5.106-7.027,5.106,2.684-8.261-7.027-5.106h8.686Z" transform="translate(-319.081 -1152.817)"/><path class="d" d="M394.467,1179.4,367.9,1160.846a5.349,5.349,0,0,0-6.081,0L335.257,1179.4a5.273,5.273,0,0,0-2.273,4.345v19.385a5.289,5.289,0,0,0,2.273,4.354l26.563,18.584a5.3,5.3,0,0,0,6.093-.012l26.554-18.572a5.3,5.3,0,0,0,2.273-4.354v-19.385A5.313,5.313,0,0,0,394.467,1179.4Zm-29.607-13,23,16.066-22.948,16.041-23.054-16.041Zm-25.582,21.942,22.147,15.4V1218.1l-22.147-15.479Zm51.163,14.28L367.721,1218.5v-14.264l22.721-15.889Z" transform="translate(-332.984 -1159.898)"/></g></g></svg>