<svg xmlns="http://www.w3.org/2000/svg" xmlns:xlink="http://www.w3.org/1999/xlink" width="88" height="88" viewBox="0 0 88 88"><defs><style>.a{clip-path:url(#b);}.b{fill:#fff;}.c{fill:#e97324;}.d{fill:#2f75b8;}.e{fill:#143157;}</style><clipPath id="b"><rect width="88" height="88"/></clipPath></defs><g id="a" class="a"><g transform="translate(10.042 12.451)"><path class="b" d="M334.626,1309.749H298.009v35.785h25.147v11.31h35.883v-34.559H334.626Z" transform="translate(-294.733 -1306.055)"/><g transform="translate(12.495 11.65)"><path class="c" d="M325.154,1312.383l-2.335,6.125H304.127a3.063,3.063,0,1,1,0-6.125Z" transform="translate(-301.061 -1312.383)"/><path class="d" d="M320.108,1314.4a2.938,2.938,0,0,1-.323.024H310.47l.012-.024Z" transform="translate(-282.052 -1308.302)"/></g><g transform="translate(12.495 23.909)"><path class="c" d="M320.461,1316.442l-2.347,6.125H304.127a3.064,3.064,0,0,1-3.066-3.057,3.053,3.053,0,0,1,3.066-3.069Z" transform="translate(-301.061 -1316.442)"/></g><g transform="translate(31.436 36.416)"><path class="c" d="M331.341,1323.651a3.067,3.067,0,0,1-3.069,3.057h-20.94l2.347-6.125h18.593a3.061,3.061,0,0,1,2.175.894A3.122,3.122,0,0,1,331.341,1323.651Z" transform="translate(-307.332 -1320.583)"/></g><path class="e" d="M358.877,1320.151H340.1l.347-.906a12.7,12.7,0,0,0,.822-4.458v-.311a5.963,5.963,0,0,0-5.962-5.95h-32.42a5.96,5.96,0,0,0-5.959,5.95v30.653a5.949,5.949,0,0,0,5.959,5.938h2.051V1360l9.451-8.931h7.4l-.471,1.229a12.414,12.414,0,0,0-.819,4.446,5.935,5.935,0,0,0,5.95,5.962h20.928l9.451,8.919V1362.7h2.051a5.955,5.955,0,0,0,5.962-5.962V1326.1A5.961,5.961,0,0,0,358.877,1320.151Zm-34.169,23.027-.67,1.764H303.046v-30.294H335.14v.139a6.446,6.446,0,0,1-.411,2.247l-.359.918-.858,2.223-2.335,6.125-2.359,6.134-2.347,6.125Zm34.006,13.4H326.62a6.582,6.582,0,0,1,.423-2.111l.471-1.205.846-2.2,2.347-6.125,2.446-6.382,1.876-4.908.459-1.217,1.565-4.074.785-2.06.012-.024h20.864Z" transform="translate(-296.924 -1308.526)"/><path class="c" d="M328.134,1319.51a3.067,3.067,0,0,1-3.069,3.057H308.919l1.876-4.908.459-1.217h13.812a3.053,3.053,0,0,1,3.069,3.069Z" transform="translate(-272.69 -1292.533)"/></g></g></svg>