<svg xmlns="http://www.w3.org/2000/svg" xmlns:xlink="http://www.w3.org/1999/xlink" width="88" height="88" viewBox="0 0 88 88"><defs><style>.a{clip-path:url(#b);}.b{fill:#fff;}.c{fill:#eb7100;}.d{fill:#003057;}.e{fill:#009898;}.f{fill:#143156;}</style><clipPath id="b"><rect width="88" height="88"/></clipPath></defs><g id="a" class="a"><g transform="translate(5 6)"><path class="b" d="M460.346,478.9l-5.1,15.587-21.577,3.777,13.234,9.686-3.083,21.658,12.334-8.885,20.647,8.945-5.075-15.742,15.344-15.661H470.408Z" transform="translate(-421.42 -465.858)"/><g transform="translate(0 0)"><path class="c" d="M456.42,489.981l2.878,8.857h9.313l-7.534,5.474,2.878,8.857-7.534-5.474-7.534,5.474,2.878-8.857-7.534-5.474h9.313Z" transform="translate(-417.521 -461.768)"/><g transform="translate(29.736)"><path class="d" d="M469.81,485.283l-8.012-5.5,7.149,22.005h-3.255a5.127,5.127,0,0,1-4.876-3.544l-5.163-15.886-.022.066-.022-.066-.79,2.433-.051.163-2.051,5.989-6.277-2.146,5.436-15.912a5.177,5.177,0,0,1,7.834-2.589l13.854,9.516Z" transform="translate(-446.441 -469.376)"/><path class="e" d="M453.372,478.921l-.811,2.368.789-2.434Z" transform="translate(-444.181 -465.876)"/></g><g transform="translate(0 14.579)"><path class="f" d="M459.462,491.253l-.909,2.793v.03h0a5.489,5.489,0,0,1-5.214,3.776H442.3l-5.341-.015.023.015h-.1l2.331,1.69.229.169,4.765,3.593-4,5.3-13.426-10.12a5.177,5.177,0,0,1-.022-8.247l13.36-10.209,4.027,5.281-7.716,5.893Z" transform="translate(-424.724 -480.024)"/><path class="e" d="M435.933,494.734l-2.331-1.689h.1Z" transform="translate(-421.445 -475.216)"/></g><g transform="translate(6.389 40.297)"><g transform="translate(15.985 21.013)"><path class="e" d="M444.56,514.152l-3.5,2.537.03-.1v-.007Z" transform="translate(-441.064 -514.152)"/></g><path class="d" d="M456.616,522.482l-13.742,9.678a5.144,5.144,0,0,1-2.973.952,5.072,5.072,0,0,1-1.579-.251,5.13,5.13,0,0,1-3.312-3.2l-5.621-15.845,6.255-2.221,3.253,9.163,7.113-21.951,2.462,1.79.014.007h0a5.4,5.4,0,0,1,1.965,6.03l-5.07,15.642.023-.014-.03.1,3.5-2.539.109-.081,3.815-2.685Z" transform="translate(-429.39 -498.806)"/></g><g transform="translate(33.238 53.082)"><g transform="translate(21.535 8.73)"><path class="e" d="M465.389,516.555l-.052-.037-.612-2Z" transform="translate(-464.725 -514.519)"/></g><path class="d" d="M479.038,528.912a5.159,5.159,0,0,1-4.072,2.154l-16.8.436-.178-6.64,9.708-.251L449,511.018l2.591-1.884h0a5.208,5.208,0,0,1,6.121.005l13.45,9.783-.015-.051.052.037-.664-2.036-.111-.339-1.932-6.285,6.344-1.955,4.95,16.074A5.15,5.15,0,0,1,479.038,528.912Z" transform="translate(-448.998 -508.143)"/></g><g transform="translate(50.053 25.695)"><path class="d" d="M489.6,495.047l-4.772,16.117-6.366-1.881,2.758-9.308-18.7,13.578-.986-3.037h0a5.207,5.207,0,0,1,1.89-5.825l13.453-9.77h-.088l.088-.066h-4.271l-4.8-.074.1-6.64,16.812.259a5.172,5.172,0,0,1,4.883,6.646Z" transform="translate(-461.279 -488.142)"/><path class="e" d="M473.823,493.045l-.088.066-4.183-.066Z" transform="translate(-458.223 -486.332)"/></g></g></g></g></svg>