<?xml version="1.0" encoding="utf-8"?>
<!-- Generator: Adobe Illustrator 25.4.1, SVG Export Plug-In . SVG Version: 6.00 Build 0)  -->
<svg version="1.1" id="Layer_1" xmlns="http://www.w3.org/2000/svg" xmlns:xlink="http://www.w3.org/1999/xlink" x="0px" y="0px"
	 width="80.4px" height="35.5px" viewBox="0 0 80.4 35.5" style="enable-background:new 0 0 80.4 35.5;" xml:space="preserve">
<style type="text/css">
	.st0{fill:#AEAFB1;}
</style>
<path class="st0" d="M31.3,10.4H26c0.1-0.8,0.7-1.3,1.7-1.8l1-0.5c1.7-0.9,2.7-1.9,2.7-3.5c0-1-0.4-1.9-1.2-2.4
	c-0.8-0.6-1.8-0.9-2.8-0.9c-0.9,0-1.7,0.2-2.4,0.7c-0.7,0.4-1.2,1-1.6,1.7l1.5,1.5c0.4-1.1,1.4-1.8,2.6-1.8c1,0,1.5,0.5,1.5,1.2
	s-0.3,1.1-1.4,1.6L27,6.5c-1.1,0.5-2.1,1.3-2.8,2.4c-0.6,1-0.9,2.2-0.8,3.4v0.4h8L31.3,10.4L31.3,10.4z M30.6,15.2h-8.7l-4.4,7.6
	h8.7l4.4,7.6l4.4-7.6L30.6,15.2z"/>
<path class="st0" d="M18.3,27.8c-5.6,0-10.1-4.5-10.1-10c0,0,0,0,0-0.1l0,0c0-5.6,4.5-10.1,10-10.1c0,0,0,0,0.1,0l0,0l3.5-7.2
	c-9.6-2-18.9,4.2-20.9,13.7c0,0,0,0,0,0.1l0,0C-1,23.8,5.2,33.1,14.8,35c0,0,0,0,0,0l0,0c4.8,1,9.9-0.1,13.9-3l-3.8-6.6
	C23.1,26.9,20.7,27.8,18.3,27.8z"/>
<path class="st0" d="M56,17.7h2.1v2.9H56v3.9h-3.6v-3.9H45l-0.2-2.2l7.5-11.9h3.6C55.9,6.5,56,17.7,56,17.7z M48.4,17.7h4v-6.4
	l-0.3,0.5L48.4,17.7z"/>
<path class="st0" d="M60.3,22.8c0-0.5,0.2-1,0.6-1.4c0.4-0.4,0.9-0.6,1.4-0.5c0.5,0,1.1,0.2,1.5,0.5c0.8,0.7,0.8,1.9,0.1,2.7
	c-0.4,0.4-1,0.7-1.6,0.6c-0.5,0-1.1-0.2-1.5-0.5C60.4,23.8,60.3,23.3,60.3,22.8z"/>
<g>
	<path class="st0" d="M72.6,22c0.9,0,1.7-0.3,2.3-1c0.6-0.7,0.9-1.7,0.9-3v-0.9c-0.4,0.5-0.9,0.9-1.4,1.1c-0.5,0.3-1.1,0.4-1.8,0.4
		c-1.6,0-2.9-0.5-3.9-1.6s-1.4-2.5-1.4-4.4c0-1.8,0.6-3.2,1.7-4.4c1.1-1.2,2.5-1.8,4.3-1.8c1.8,0,3.3,0.6,4.4,1.9
		c1.1,1.2,1.7,3,1.7,5.3v4.2c0,2.1-0.6,3.8-1.9,5.1c-1.3,1.2-2.9,1.8-4.8,1.8c-0.6,0-1.3-0.1-1.9-0.2c-0.7-0.1-1.3-0.3-1.8-0.6
		l0.4-2.6c0.5,0.2,1,0.4,1.6,0.4C71.4,21.9,72,22,72.6,22z M73.2,16c0.6,0,1.1-0.1,1.5-0.3s0.8-0.5,1.1-0.9v-1.6
		c0-1.3-0.2-2.3-0.7-3c-0.5-0.7-1.1-1-1.8-1c-0.7,0-1.3,0.3-1.7,1c-0.5,0.7-0.7,1.5-0.7,2.4c0,1,0.2,1.8,0.6,2.4
		C71.9,15.7,72.4,16,73.2,16z"/>
</g>
</svg>
