<?xml version="1.0" encoding="utf-8"?>
<!-- Generator: Adobe Illustrator 25.4.1, SVG Export Plug-In . SVG Version: 6.00 Build 0)  -->
<svg version="1.1" id="Layer_1" xmlns="http://www.w3.org/2000/svg" xmlns:xlink="http://www.w3.org/1999/xlink" x="0px" y="0px"
	 width="170.6px" height="35.5px" viewBox="0 0 170.6 35.5" style="enable-background:new 0 0 170.6 35.5;" xml:space="preserve">
<style type="text/css">
	.st0{fill:#AEAFB1;}
</style>
<path class="st0" d="M0.5,11.8h18.4V4.9L0.5,11.8z"/>
<path class="st0" d="M18.9,5v24.3l8.7-27.6L18.9,5z"/>
<path class="st0" d="M18.9,11.8h-7l7,17.4V11.8z"/>
<path class="st0" d="M0.5,11.8l13.2,4.5l-1.8-4.5L0.5,11.8z"/>
<path class="st0" d="M42.6,22.9c-0.2,0.1-0.3,0.3-0.5,0.4s-0.6,0.3-0.9,0.5c-0.4,0.2-0.9,0.3-1.4,0.4c-0.6,0.1-1.3,0.2-1.9,0.2
	c-1.2,0-2.4-0.2-3.5-0.7c-1-0.4-1.8-1-2.5-1.8c-0.7-0.8-1.1-1.8-1.4-2.8c-0.3-1.2-0.4-2.4-0.4-3.6c0-1.2,0.2-2.4,0.5-3.5
	c0.3-1,0.8-2,1.5-2.8c0.7-0.8,1.5-1.4,2.5-1.8c1-0.6,2.2-0.8,3.4-0.8c0.6,0,1.2,0.1,1.8,0.2c0.5,0.1,0.9,0.2,1.4,0.4
	c0.4,0.1,0.7,0.3,1,0.5c0.2,0.1,0.4,0.3,0.6,0.4s0.2,0.3,0.3,0.5c0.1,0.2,0.2,0.4,0.2,0.6c0,0.4-0.1,0.7-0.4,1
	c-0.2,0.4-0.5,0.7-0.8,1c-0.2-0.2-0.4-0.4-0.7-0.6c-0.3-0.2-0.5-0.4-0.8-0.6c-0.4-0.2-0.7-0.3-1.1-0.4c-0.4-0.1-0.9-0.2-1.3-0.2
	c-1.4,0-2.8,0.7-3.6,1.9c-0.4,0.6-0.6,1.2-0.7,1.9c-0.2,0.7-0.3,1.5-0.3,2.2c0,0.8,0.1,1.5,0.2,2.3c0.1,0.7,0.4,1.3,0.8,1.9
	c0.4,0.5,0.8,1,1.4,1.3c1.1,0.5,2.3,0.6,3.5,0.3c0.4-0.1,0.7-0.2,1-0.4c0.3-0.2,0.5-0.3,0.8-0.5s0.4-0.3,0.6-0.5
	c0.1,0.1,0.2,0.3,0.4,0.4s0.3,0.3,0.4,0.5l0.3,0.6c0.1,0.2,0.1,0.3,0.1,0.5c0,0.2,0,0.4-0.1,0.6C42.9,22.5,42.8,22.7,42.6,22.9
	L42.6,22.9z M55.6,20.9c-0.1,1,0.1,2,0.6,2.9l-0.9,0.3c-0.3,0.1-0.5,0.1-0.8,0.1c-0.5,0-1-0.1-1.4-0.4c-0.3-0.3-0.5-0.6-0.6-1
	c-0.4,0.4-0.9,0.8-1.5,1c-0.7,0.3-1.4,0.4-2.2,0.4c-0.5,0-0.9-0.1-1.4-0.2c-0.5-0.1-0.9-0.3-1.2-0.6c-0.4-0.3-0.7-0.7-0.9-1.1
	c-0.6-1.3-0.5-2.7,0.2-3.9c0.4-0.6,1-1,1.6-1.3c0.6-0.3,1.3-0.5,2-0.6c0.7-0.1,1.3-0.2,2-0.2h1.1v-0.6c0.1-0.5-0.1-1-0.5-1.4
	c-0.5-0.3-1.1-0.5-1.7-0.4c-0.7,0-1.3,0.1-1.9,0.4c-0.6,0.2-1.2,0.5-1.7,0.8c-0.2-0.3-0.4-0.7-0.6-1c-0.1-0.2-0.2-0.5-0.2-0.8
	c0-0.3,0.2-0.5,0.4-0.7c0.3-0.3,0.7-0.5,1.1-0.6c0.5-0.2,1.1-0.3,1.6-0.4c0.6-0.1,1.3-0.2,1.9-0.2c0.8,0,1.6,0.1,2.3,0.3
	c0.6,0.2,1.1,0.5,1.6,0.9c0.4,0.4,0.7,0.9,0.8,1.5c0.2,0.6,0.3,1.3,0.3,2L55.6,20.9L55.6,20.9z M52.4,18h-0.8
	c-0.4,0-0.9,0.1-1.3,0.2c-0.4,0.1-0.8,0.2-1.1,0.4c-0.3,0.2-0.6,0.4-0.8,0.7c-0.2,0.3-0.3,0.6-0.3,1c0,0.4,0.1,0.9,0.4,1.2
	c0.4,0.4,0.9,0.5,1.4,0.5c0.3,0,0.6,0,0.9-0.1c0.3-0.1,0.5-0.2,0.8-0.3c0.2-0.1,0.4-0.2,0.5-0.4c0.1-0.1,0.2-0.2,0.2-0.4
	C52.3,20.8,52.4,18,52.4,18z M61.9,13c0.4-0.4,0.8-0.7,1.3-1c0.7-0.4,1.4-0.5,2.2-0.5c0.6,0,1.2,0.1,1.8,0.3c0.6,0.2,1.1,0.6,1.5,1
	c0.5,0.5,0.8,1.2,1,1.9c0.3,0.9,0.4,1.9,0.4,2.9c0,1.1-0.1,2.2-0.5,3.3c-0.2,0.8-0.6,1.5-1.2,2c-0.4,0.5-1,0.9-1.6,1.1
	c-0.6,0.2-1.2,0.3-1.8,0.3c-0.4,0-0.9,0-1.3-0.2c-0.3-0.1-0.6-0.2-0.9-0.4c-0.2-0.1-0.4-0.2-0.6-0.4L61.9,23v6.2h-3.4V11.9h1.2
	c0.5,0,1,0.1,1.4,0.3C61.5,12.2,61.9,12.5,61.9,13C61.9,13,61.9,13,61.9,13z M66.5,17.7c0-0.5,0-0.9-0.1-1.4
	c-0.1-0.4-0.2-0.8-0.4-1.1c-0.2-0.3-0.5-0.6-0.8-0.7c-0.4-0.2-0.8-0.3-1.2-0.3c-0.5-0.1-1.1,0.1-1.5,0.4c-0.3,0.1-0.4,0.5-0.4,0.8
	v5.4c0.2,0.2,0.4,0.4,0.7,0.5c0.4,0.2,0.8,0.3,1.2,0.3c0.8,0,1.5-0.3,1.9-1C66.3,19.7,66.5,18.7,66.5,17.7z M72.8,22
	c-0.1-0.4-0.2-0.7-0.2-1.1c0-0.4-0.1-0.7-0.1-1.1V8.1c0.1,0,0.3,0,0.4-0.1h0.8c0.3,0,0.5,0,0.8,0.1c0.3,0,0.5,0.1,0.7,0.3
	c0.2,0.2,0.4,0.4,0.5,0.6c0.1,0.3,0.2,0.7,0.2,1v1.8h3.5v2.6h-3.5v5.4c0,1.2,0.5,1.8,1.4,1.8c0.2,0,0.5,0,0.7-0.1l0.6-0.3
	c0.2-0.1,0.3-0.2,0.4-0.3c0.1-0.1,0.2-0.1,0.3-0.2c0.2,0.3,0.4,0.7,0.6,1c0.1,0.2,0.2,0.5,0.2,0.8c0,0.3-0.1,0.5-0.3,0.7
	c-0.2,0.2-0.5,0.4-0.7,0.6c-0.4,0.2-0.8,0.3-1.2,0.4c-0.5,0.1-1,0.2-1.5,0.2c-0.8,0.1-1.7-0.1-2.4-0.6C73.4,23.3,73,22.7,72.8,22z
	 M88.2,21.7c0.4,0,0.7,0,1.1-0.1l0.9-0.3c0.2-0.1,0.5-0.3,0.7-0.4s0.4-0.3,0.5-0.4c0.3,0.3,0.5,0.6,0.6,1c0.2,0.3,0.3,0.6,0.3,1
	c0,0.4-0.3,0.8-0.6,1c-0.5,0.3-1,0.6-1.5,0.7c-1.5,0.4-3.1,0.4-4.6,0c-0.8-0.2-1.5-0.6-2.1-1.1c-0.6-0.6-1.1-1.3-1.5-2
	c-0.4-1-0.6-2.1-0.6-3.2c0-0.9,0.1-1.8,0.5-2.7c0.3-0.7,0.7-1.4,1.3-1.9c0.5-0.5,1.2-0.9,1.9-1.1c0.7-0.2,1.4-0.4,2.1-0.4
	c0.8,0,1.6,0.1,2.4,0.4c0.6,0.3,1.2,0.7,1.6,1.2c0.4,0.5,0.7,1.1,0.9,1.7c0.2,0.6,0.3,1.3,0.3,2v1.5h-7.5c0,0.9,0.3,1.7,0.9,2.3
	C86.4,21.5,87.3,21.8,88.2,21.7L88.2,21.7z M89.4,16.6c0-0.7-0.1-1.4-0.5-2c-0.4-0.5-1-0.8-1.7-0.8c-0.6,0-1.3,0.2-1.7,0.7
	c-0.4,0.6-0.6,1.3-0.6,2h4.5L89.4,16.6z M98.5,13.1c0.1-0.2,0.3-0.3,0.4-0.5c0.2-0.2,0.4-0.4,0.6-0.5c0.2-0.2,0.5-0.3,0.8-0.4
	c0.3-0.1,0.7-0.2,1-0.2h0.6c0.2,0,0.4,0.1,0.6,0.2c0.2,0.1,0.4,0.2,0.5,0.4c0.1,0.2,0.2,0.4,0.2,0.6c0,0.5-0.1,0.9-0.3,1.3
	c-0.2,0.4-0.4,0.8-0.6,1.2c-0.3-0.2-0.6-0.4-0.9-0.5c-0.3-0.1-0.7-0.2-1-0.2c-0.5,0-1,0.2-1.3,0.5c-0.3,0.3-0.5,0.7-0.5,1.1v8.2
	h-3.4V11.9c0.1,0,0.2,0,0.3-0.1h0.9c0.5,0,1,0.1,1.4,0.3C98.1,12.3,98.4,12.7,98.5,13.1z M108.3,13.1c0.1-0.2,0.3-0.3,0.4-0.5
	c0.2-0.2,0.4-0.4,0.6-0.5c0.2-0.2,0.5-0.3,0.8-0.4c0.3-0.1,0.7-0.2,1-0.2h0.6c0.2,0,0.4,0.1,0.6,0.2c0.2,0.1,0.4,0.2,0.5,0.4
	c0.1,0.2,0.2,0.4,0.2,0.6c0,0.5-0.1,0.9-0.3,1.3c-0.2,0.4-0.4,0.8-0.6,1.2c-0.3-0.2-0.6-0.4-0.9-0.5c-0.3-0.1-0.7-0.2-1-0.2
	c-0.5-0.1-1,0.1-1.3,0.5c-0.3,0.3-0.5,0.7-0.5,1.1v8.2H105V11.9c0.1,0,0.2,0,0.3-0.1c0.1-0.1,0.2,0,0.4,0h0.5c0.5,0,1,0.1,1.4,0.3
	C108,12.3,108.2,12.7,108.3,13.1L108.3,13.1z M124.7,20.9c-0.1,1,0.1,2,0.6,2.9c-0.3,0.1-0.5,0.2-0.8,0.3c-0.3,0.1-0.5,0.1-0.8,0.1
	c-0.5,0-1-0.1-1.4-0.4c-0.3-0.3-0.5-0.6-0.6-1c-0.4,0.4-0.9,0.8-1.5,1c-0.7,0.3-1.4,0.4-2.2,0.4c-0.5,0-0.9-0.1-1.4-0.2
	c-0.5-0.1-0.9-0.3-1.2-0.6c-0.4-0.3-0.7-0.7-0.9-1.1c-0.6-1.3-0.5-2.7,0.2-3.9c0.4-0.6,1-1,1.6-1.3c0.6-0.3,1.3-0.5,2-0.6
	c0.7-0.1,1.3-0.2,2-0.2h1.1v-0.6c0.1-0.5-0.1-1-0.5-1.4c-0.5-0.3-1.1-0.5-1.7-0.4c-0.7,0-1.3,0.1-1.9,0.4c-0.6,0.2-1.2,0.5-1.7,0.8
	c-0.2-0.3-0.4-0.7-0.6-1c-0.1-0.2-0.2-0.5-0.2-0.8c0-0.3,0.2-0.5,0.4-0.7c0.3-0.3,0.7-0.5,1.1-0.6c0.5-0.2,1.1-0.3,1.6-0.4
	c0.6,0,1.2-0.1,1.9-0.1c0.8,0,1.6,0.1,2.3,0.3c0.6,0.2,1.1,0.5,1.5,0.9c0.4,0.4,0.7,0.9,0.8,1.5c0.2,0.6,0.3,1.3,0.3,2
	C124.7,16.2,124.7,20.9,124.7,20.9z M121.5,18h-0.8c-0.4,0-0.9,0.1-1.3,0.2c-0.4,0.1-0.8,0.2-1.1,0.4c-0.3,0.2-0.6,0.4-0.8,0.7
	c-0.2,0.3-0.3,0.6-0.3,1c0,0.4,0.1,0.9,0.4,1.2c0.4,0.4,0.9,0.5,1.4,0.5c0.3,0,0.6,0,0.9-0.1c0.3-0.1,0.5-0.2,0.8-0.3
	c0.2-0.1,0.4-0.2,0.5-0.4c0.1-0.1,0.2-0.2,0.2-0.4V18L121.5,18z"/>
<path class="st0" d="M146.6,17.8h2.1v2.9h-2.1v3.9H143v-3.9h-7.4l-0.2-2.3l7.5-11.9h3.6L146.6,17.8z M139,17.8h4v-6.4l-0.3,0.4
	L139,17.8z"/>
<path class="st0" d="M150.9,22.8c0-0.5,0.2-1,0.6-1.4c0.4-0.4,0.9-0.6,1.4-0.5c0.5,0,1.1,0.2,1.5,0.5c0.8,0.7,0.8,1.9,0.1,2.7
	c-0.4,0.4-1,0.7-1.6,0.6c-0.5,0-1.1-0.2-1.5-0.5C151.1,23.8,150.9,23.3,150.9,22.8z"/>
<g>
	<path class="st0" d="M163.3,21.9c0.9,0,1.7-0.3,2.3-1c0.6-0.7,0.9-1.7,0.9-3V17c-0.4,0.5-0.9,0.9-1.4,1.1c-0.5,0.3-1.1,0.4-1.8,0.4
		c-1.6,0-2.9-0.5-3.9-1.6s-1.4-2.5-1.4-4.4c0-1.8,0.6-3.2,1.7-4.4c1.1-1.2,2.5-1.8,4.3-1.8c1.8,0,3.3,0.6,4.4,1.9s1.7,3,1.7,5.3v4.2
		c0,2.1-0.6,3.8-1.9,5.1c-1.3,1.2-2.9,1.8-4.8,1.8c-0.6,0-1.3-0.1-1.9-0.2c-0.7-0.1-1.3-0.3-1.8-0.6l0.4-2.6c0.5,0.2,1,0.4,1.6,0.4
		S162.7,21.9,163.3,21.9z M163.9,15.9c0.6,0,1.1-0.1,1.5-0.3c0.4-0.2,0.8-0.5,1.1-0.9v-1.6c0-1.3-0.2-2.3-0.7-3
		c-0.5-0.7-1.1-1-1.8-1c-0.7,0-1.3,0.3-1.7,1c-0.5,0.7-0.7,1.5-0.7,2.4c0,1,0.2,1.8,0.6,2.4C162.6,15.6,163.2,15.9,163.9,15.9z"/>
</g>
</svg>
