<svg id="Layer_1" data-name="Layer 1" xmlns="http://www.w3.org/2000/svg" viewBox="0 0 42 35.5"><defs><style>.cls-1{fill:#aeafb1;}</style></defs><path class="cls-1" d="M27.07,19a6.89,6.89,0,0,0-6.1-3.2,7.4,7.4,0,0,0-5.8,2.3L15,20h-1.1a7.09,7.09,0,0,0-.9,2.8,5.73,5.73,0,0,1,3,5.1,6.77,6.77,0,0,1-1.4,4.1,7.16,7.16,0,0,0,5.9,2.8,7.52,7.52,0,0,0,6.4-3.2,11.49,11.49,0,0,1-1.6-6A12,12,0,0,1,27.07,19Zm-6.4,12.1c-1.2,0-2-.9-2.3-2.3a9.68,9.68,0,0,1-.2-2.9c0-1.8.1-4.2.8-5.3a2.14,2.14,0,0,1,1.9-1.1c1.3,0,1.9,1,2.2,2.2a25.61,25.61,0,0,1,.3,3.9c-.1,2.5-.5,5.5-2.7,5.5Z"/><path class="cls-1" d="M33.57,15.85a7.26,7.26,0,0,0-6.5,3.1,11.49,11.49,0,0,1,1.6,6,12,12,0,0,1-1.8,6.6,7.38,7.38,0,0,0,6.2,3.3c6.1,0,8.2-5.2,8.2-9.8C41.27,21.35,39.77,16,33.57,15.85Zm-.3,15.3c-1.2,0-2-.9-2.3-2.3a9.68,9.68,0,0,1-.2-2.9c0-1.8.1-4.2.8-5.3a2.14,2.14,0,0,1,1.9-1.1c1.3,0,1.9,1,2.2,2.2.1,1.1.2,2.5.2,3.8,0,2.6-.4,5.6-2.6,5.6Z"/><path class="cls-1" d="M27.07,19a11.18,11.18,0,0,0-1.8,6.6,10.62,10.62,0,0,0,1.6,6,12,12,0,0,0,1.8-6.6A11.49,11.49,0,0,0,27.07,19Z"/><path class="cls-1" d="M13,22.75a7.92,7.92,0,0,0-4-1,10.47,10.47,0,0,0-3,.5,2.19,2.19,0,0,1-.5.3l.3-2.6h8.1a6.41,6.41,0,0,1,1.3-1.9l.2-1.8H1.87l-1,9.8,4.5.6a2.08,2.08,0,0,1,2.2-1.2,2.58,2.58,0,0,1,2.8,2.3v.5a2.58,2.58,0,0,1-2.3,2.8h-.4a2.29,2.29,0,0,1-2.3-1.5,2.88,2.88,0,0,1-.1-1.3l-5.4.5a8.07,8.07,0,0,0,1.7,3.9c2.1,2.1,5.1,2.1,6.1,2.1,1.5,0,4.4-.1,6.4-2.2a2.65,2.65,0,0,0,.5-.6,10.48,10.48,0,0,1-1.9-6.4A12.65,12.65,0,0,1,13,22.75Z"/><path class="cls-1" d="M15,20l.2-1.9a8,8,0,0,0-1.3,1.9Z"/><path class="cls-1" d="M13,22.75a13.33,13.33,0,0,0-.3,2.8,10.48,10.48,0,0,0,1.9,6.4,6.77,6.77,0,0,0,1.4-4.1A5.93,5.93,0,0,0,13,22.75Z"/><path class="cls-1" d="M.41,14.31v-3h1.8V3.71H.41V.51H10v3.2H8.21v7.6H10v3Z"/><path class="cls-1" d="M18.71,14.31v-3h1.4V8.21c0-1-.7-1.4-1.6-1.4a1.88,1.88,0,0,0-1.9,1.8v2.7H18v3h-7.5v-3h1.4V6.81h-1.4v-3h5.9v2.1l.3-.3a4.67,4.67,0,0,1,4-1.7c2.3,0,4.1.9,4.1,3.5v4H26v3Z"/><path class="cls-1" d="M38,8.21l-4.1.4c0-1.1-.3-2.3-1.7-2.3-1.7,0-1.9,1.5-1.9,2.9h0c0,1.4.1,2.8,1.9,2.8a1.57,1.57,0,0,0,1.7-1.4v-.2h4v.3c-.7,3.3-3.6,3.8-5.8,3.8-3.4,0-6.6-1.6-6.6-5.4h0c0-3.7,3.3-5.4,6.6-5.4C32.31,3.81,37.51,3.51,38,8.21Z"/><path class="cls-1" d="M41.11,12.71a1.75,1.75,0,0,1-1.7,1.7h0a1.75,1.75,0,0,1-1.7-1.7h0a1.75,1.75,0,0,1,1.7-1.7h0a1.58,1.58,0,0,1,1.7,1.7Z"/></svg>