<svg id="Layer_1" data-name="Layer 1" xmlns="http://www.w3.org/2000/svg" viewBox="0 0 126.09 35.5"><defs><style>.cls-1{fill:#aeafb1;}</style></defs><path class="cls-1" d="M12.8,6.87H6.7v1.8h4.4c-.2,2.5-2.3,3.6-4.3,3.6A4.74,4.74,0,0,1,2,7.47v-.1a4.72,4.72,0,0,1,4.7-4.8h.1A4.82,4.82,0,0,1,10,3.87l1.3-1.3A6.5,6.5,0,0,0,6.7.77,6.75,6.75,0,0,0,0,7.37a6.79,6.79,0,0,0,6.8,6.7A5.9,5.9,0,0,0,13,8.57v-.5a4.3,4.3,0,0,0-.2-1.2Z"/><path class="cls-1" d="M18.1,5.47a4.23,4.23,0,0,0-4.3,4.1v.1A4.25,4.25,0,0,0,18,14h.2a4.29,4.29,0,0,0,4.3-4.1v-.1a4.22,4.22,0,0,0-4.1-4.3Zm0,1.7a2.45,2.45,0,0,1,2.4,2.5v.1a2.46,2.46,0,0,1-2.3,2.6h-.1a2.34,2.34,0,0,1-2.4-2.5v-.1a2.41,2.41,0,0,1,2.4-2.6Z"/><path class="cls-1" d="M27.3,5.47A4.23,4.23,0,0,0,23,9.57v.1A4.25,4.25,0,0,0,27.2,14h.2a4.29,4.29,0,0,0,4.3-4.1v-.1a4.22,4.22,0,0,0-4.1-4.3Zm.1,1.7a2.45,2.45,0,0,1,2.4,2.5v.1a2.46,2.46,0,0,1-2.3,2.6h-.1A2.34,2.34,0,0,1,25,9.87v-.1a2.41,2.41,0,0,1,2.4-2.6Z"/><path class="cls-1" d="M36.5,5.47a4.3,4.3,0,0,0,0,8.6,2.76,2.76,0,0,0,2.3-1v.8a2.06,2.06,0,0,1-1.9,2.3h-.3a2.39,2.39,0,0,1-2.2-1.5l-1.6.7a4.16,4.16,0,0,0,3.8,2.5c2.3,0,4-1.4,4-4.5V5.67H38.8v.8a3.26,3.26,0,0,0-2.3-1Zm.2,1.7A2.53,2.53,0,0,1,39,9.77v.1a2.44,2.44,0,0,1-2.2,2.6h-.1A2.46,2.46,0,0,1,34.3,10v-.1a2.5,2.5,0,0,1,2.4-2.7Z"/><path class="cls-1" d="M48.4,5.47a4.1,4.1,0,0,0-4,4.1v.2a4.14,4.14,0,0,0,4,4.3h.2a4.37,4.37,0,0,0,3.6-1.9l-1.5-1a2.44,2.44,0,0,1-2.1,1.2,2.33,2.33,0,0,1-2.1-1.3l5.7-2.4L52,8a4.22,4.22,0,0,0-3.6-2.5Zm.1,1.7a1.7,1.7,0,0,1,1.6.9l-3.8,1.6a2.35,2.35,0,0,1,2.2-2.5Z"/><rect class="cls-1" x="41.8" y="1.17" width="1.8" height="12.6"/><path class="cls-1" d="M3.19,35.18H1.39V21.48h4.7a4.65,4.65,0,0,1,3.1,1.2,3.7,3.7,0,0,1,1.2,2.9,3.84,3.84,0,0,1-.9,2.5,4.52,4.52,0,0,1-2.4,1.4v.1l3.9,5.6v.1H8.89l-3.8-5.6h-2l.1,5.5Zm0-12.1V28h2.9a2.57,2.57,0,0,0,1.8-.7,2.29,2.29,0,0,0,.8-1.7,2.49,2.49,0,0,0-.8-1.7,2.09,2.09,0,0,0-1.8-.7Z"/><path class="cls-1" d="M16.29,35.58a4.76,4.76,0,0,1-3.4-1.4,4.88,4.88,0,0,1-1.3-3.6,5.33,5.33,0,0,1,1.3-3.6,4.39,4.39,0,0,1,3.4-1.4,3.77,3.77,0,0,1,3.3,1.4,5.12,5.12,0,0,1,1.1,3.7v.2h-7.4a3.1,3.1,0,0,0,.9,2.2,2.46,2.46,0,0,0,2.1.8,3.13,3.13,0,0,0,2.7-1.7l1.6.8a4.69,4.69,0,0,1-1.8,1.9A5.2,5.2,0,0,1,16.29,35.58Zm-2.9-6.2h5.4a2.09,2.09,0,0,0-.8-1.6,2.21,2.21,0,0,0-1.9-.6,2.72,2.72,0,0,0-1.7.6,3.36,3.36,0,0,0-1,1.6Z"/><path class="cls-1" d="M26.79,35.18H25l-3.8-9.4h1.9l2.8,7.3h0l2.8-7.3h1.9Z"/><path class="cls-1" d="M34.09,22.58a1.09,1.09,0,0,1-.4.9,1.49,1.49,0,0,1-.9.4,1.09,1.09,0,0,1-.9-.4,1.49,1.49,0,0,1-.4-.9,1.09,1.09,0,0,1,.4-.9,1.22,1.22,0,0,1,.9-.4,1.09,1.09,0,0,1,.9.4A1.27,1.27,0,0,1,34.09,22.58Zm-.4,3.2v9.4h-1.8v-9.4Z"/><path class="cls-1" d="M40.09,35.58a4.76,4.76,0,0,1-3.4-1.4,4.88,4.88,0,0,1-1.3-3.6,5.33,5.33,0,0,1,1.3-3.6,4.39,4.39,0,0,1,3.4-1.4,3.77,3.77,0,0,1,3.3,1.4,5.27,5.27,0,0,1,1.2,3.8V31h-7.4a3.1,3.1,0,0,0,.9,2.2,2.46,2.46,0,0,0,2.1.8,3.13,3.13,0,0,0,2.7-1.7l1.6.8a4.69,4.69,0,0,1-1.8,1.9A7.6,7.6,0,0,1,40.09,35.58Zm-2.8-6.2h5.4a2.09,2.09,0,0,0-.8-1.6,2.64,2.64,0,0,0-1.9-.7,2.72,2.72,0,0,0-1.7.6,3.35,3.35,0,0,0-1,1.7Z"/><path class="cls-1" d="M59.39,25.78l-3,9.4h-1.8L52.29,28,50,35.18h-1.8l-3-9.4H47l2.1,7.1h0l2.3-7.1h1.8l2.3,7.1h0l2.1-7.1Z"/><path class="cls-1" d="M66.89,29.68v5.6h-1.8V21.48h4.7a4.23,4.23,0,0,1,3,1.2,3.93,3.93,0,0,1,1.3,2.9,3.6,3.6,0,0,1-1.3,2.9,4.23,4.23,0,0,1-3,1.2Zm0-6.5V28h3a2.41,2.41,0,0,0,1.8-.7,2.19,2.19,0,0,0,.7-1.7,2.84,2.84,0,0,0-.7-1.7,2.09,2.09,0,0,0-1.8-.7Z"/><path class="cls-1" d="M78.89,25.48a4.45,4.45,0,0,1,3.1,1,3.56,3.56,0,0,1,1.1,2.9v5.8h-1.7v-1.3h-.1a3.36,3.36,0,0,1-2.9,1.6,3.92,3.92,0,0,1-2.6-.9,2.62,2.62,0,0,1-1-2.3,2.84,2.84,0,0,1,1.1-2.3,5.29,5.29,0,0,1,3-.9,5.83,5.83,0,0,1,2.6.6v-.4a2.36,2.36,0,0,0-.7-1.6,2.24,2.24,0,0,0-1.7-.6,3.09,3.09,0,0,0-2.4,1.3l-1.6-1A4.14,4.14,0,0,1,78.89,25.48Zm-2.3,6.9a1.43,1.43,0,0,0,.6,1.2,2.39,2.39,0,0,0,1.4.5,3,3,0,0,0,2-.8,2.46,2.46,0,0,0,.9-1.9,3.89,3.89,0,0,0-2.3-.7,3.74,3.74,0,0,0-1.8.5,1.13,1.13,0,0,0-.8,1.2Z"/><path class="cls-1" d="M85.09,25.78h1.7v1.5h.1a3.22,3.22,0,0,1,3.3-1.8h.4v1.9l-.9-.1a2.44,2.44,0,0,0-2,.8,2.73,2.73,0,0,0-.8,1.9v5.2h-1.8Zm11.1,9.6a2.64,2.64,0,0,1-1.9-.7,2.79,2.79,0,0,1-.8-2v-5.3h-1.7v-1.6h1.7v-2.9h1.8v2.9h2.3v1.6h-2.3v4.7a1.57,1.57,0,0,0,.4,1.3,1.14,1.14,0,0,0,.8.3h.4c.1,0,.3-.1.4-.1l.6,1.6a11.14,11.14,0,0,1-1.7.2Z"/><path class="cls-1" d="M99.29,25.78H101v1.3h.1a3.45,3.45,0,0,1,1.2-1.2,3.7,3.7,0,0,1,4.4.5,3.66,3.66,0,0,1,.9,2.8v5.9h-1.8v-5.7a2.11,2.11,0,0,0-1.8-2.3h-.5a2.27,2.27,0,0,0-1.8.9,4.66,4.66,0,0,0-.6,2v5.2h-1.8Z"/><path class="cls-1" d="M114,35.58a4.76,4.76,0,0,1-3.4-1.4,4.88,4.88,0,0,1-1.3-3.6,5.33,5.33,0,0,1,1.3-3.6,4.39,4.39,0,0,1,3.4-1.4,3.77,3.77,0,0,1,3.3,1.4,5.27,5.27,0,0,1,1.2,3.8V31h-7.4a3.1,3.1,0,0,0,.9,2.2,2.46,2.46,0,0,0,2.1.8,3.13,3.13,0,0,0,2.7-1.7l1.6.8a4.69,4.69,0,0,1-1.8,1.9A7.6,7.6,0,0,1,114,35.58Zm-2.8-6.2h5.4a2.09,2.09,0,0,0-.8-1.6,2.21,2.21,0,0,0-1.9-.6,2.72,2.72,0,0,0-1.7.6,2.75,2.75,0,0,0-1,1.6Z"/><path class="cls-1" d="M121.89,35.18h-1.8v-9.4h1.7v1.5h.1A2.76,2.76,0,0,1,123,26a3.32,3.32,0,0,1,1.6-.5,5.85,5.85,0,0,1,1.3.2l-.5,1.8a1.73,1.73,0,0,0-1-.1,2.14,2.14,0,0,0-1.7.8,2.64,2.64,0,0,0-.7,1.9Z"/><path class="cls-1" d="M63.94,1.21,65.54,6h5l-4.1,3,1.6,4.8-4.1-3-4.1,3L61.44,9l-4.1-3h5Z"/><path class="cls-1" d="M77.74,1.21,79.34,6h5l-4.1,3,1.6,4.8-4.1-3-4.1,3L75.24,9l-4.1-3h5Z"/><path class="cls-1" d="M91.64,1.21,93.24,6h5l-4.1,3,1.6,4.8-4.1-3-4.1,3L89.14,9,85,6h5Z"/><path class="cls-1" d="M105.54,1.21l1.6,4.8h5L108,9l1.6,4.8-4.1-3-4.1,3L103,9l-4.1-3h5Z"/><path class="cls-1" d="M119.34,1.21l1.6,4.8h5l-4.1,3,1.6,4.8-4.1-3-4.1,3,1.6-4.8-4.1-3h5Z"/></svg>