<svg xmlns="http://www.w3.org/2000/svg" width="168.392" height="26.104" viewBox="0 0 168.392 26.104"><g transform="translate(0 0)"><path d="M198.772,6131.383h2.149v3.444h2.444a2.8,2.8,0,0,1,2.3.919,3.867,3.867,0,0,1,.746,2.509v4.871h-2.149v-4.608a1.44,1.44,0,0,0-.394-1.119,1.233,1.233,0,0,0-1.017-.436H201l-.082,6.163h-2.149Z" transform="translate(-156.476 -6123.16)" fill="#333333"/><path d="M195.742,6139.993a3.127,3.127,0,0,1-.884,2.148l-.005.006a3.171,3.171,0,0,1-2.293.98h-4.811V6141h4.811a1.062,1.062,0,0,0,1.048-.971l-.017-.026v0a1.565,1.565,0,0,0-.135-.649,1.372,1.372,0,0,0-.155-.26,1.673,1.673,0,0,0-.285-.3,3.205,3.205,0,0,0-.35-.246c-.116-.073-.249-.146-.39-.217a11.428,11.428,0,0,0-1.109-.465l-.757-.277a5.694,5.694,0,0,1-.943-.449,4.088,4.088,0,0,1-.862-.687,3.226,3.226,0,0,1-.517-.712c-.037-.067-.074-.135-.1-.207a2.668,2.668,0,0,1-.234-1.1,2.763,2.763,0,0,1,.113-.824,3.012,3.012,0,0,1,.759-1.289,3.149,3.149,0,0,1,2.222-.937h4.326v2.131h-4.326a1.018,1.018,0,0,0-.706.3l-.006.006a.832.832,0,0,0-.251.586.593.593,0,0,0,.04.229,1.165,1.165,0,0,0,.22.331,1.852,1.852,0,0,0,.415.327,3.4,3.4,0,0,0,.582.283l.765.276a14.243,14.243,0,0,1,1.327.562,5.919,5.919,0,0,1,1.133.718c.008.006.014.012.023.017a4.083,4.083,0,0,1,.485.483c.031.027.059.059.088.087a2.834,2.834,0,0,1,.737,1.584A4.152,4.152,0,0,1,195.742,6139.993Z" transform="translate(-155.007 -6123.16)" fill="#333333"/><path d="M257.393,6135.6a4.632,4.632,0,0,0-1.3-.172,4.065,4.065,0,0,0-1.683.345,4.257,4.257,0,0,0-.619.349v-.5h-2.149v8.037h2.149v-3.989c0-.071,0-.142.009-.209a2.875,2.875,0,0,1,.133-.673,2.256,2.256,0,0,1,.159-.377,1.174,1.174,0,0,1,.076-.13,1.985,1.985,0,0,1,.265-.328,1.8,1.8,0,0,1,.274-.232,2.291,2.291,0,0,1,.387-.214.223.223,0,0,1,.04-.017,1.935,1.935,0,0,1,.61-.1,2.648,2.648,0,0,1,.584.056,2.009,2.009,0,0,1,.435.159l.02-.071a.01.01,0,0,1,.01.006l.088-.234.629-1.671C257.469,6135.63,257.432,6135.616,257.393,6135.6Z" transform="translate(-163.521 -6123.7)" fill="#333333"/><path d="M227.6,6137.849a4.148,4.148,0,0,0-.828-1.326,3.86,3.86,0,0,0-1.259-.892,3.578,3.578,0,0,0-1.445-.289h-3.908v11.6h2.105v-3.215h1.8a3.579,3.579,0,0,0,1.445-.29,3.832,3.832,0,0,0,1.259-.892,4.116,4.116,0,0,0,.828-1.326,4.819,4.819,0,0,0,0-3.375Zm-1.977,2.535a1.988,1.988,0,0,1-.466.644,2.118,2.118,0,0,1-.667.408,2.165,2.165,0,0,1-.8.147H222.26v-4.093h1.429a2.184,2.184,0,0,1,.8.146,2.136,2.136,0,0,1,.667.408,1.985,1.985,0,0,1,.643,1.491A1.981,1.981,0,0,1,225.618,6140.384Z" transform="translate(-159.326 -6123.688)" fill="#333333"/><path d="M237.713,6137.849a4.133,4.133,0,0,0-.828-1.326,3.86,3.86,0,0,0-1.259-.892,3.572,3.572,0,0,0-1.445-.289h-3.907v11.6h2.105v-3.215h1.8a3.573,3.573,0,0,0,1.445-.29,3.831,3.831,0,0,0,1.259-.892,4.1,4.1,0,0,0,.828-1.326,4.82,4.82,0,0,0,0-3.375Zm-1.977,2.535a1.989,1.989,0,0,1-.466.644,2.109,2.109,0,0,1-.667.408,2.165,2.165,0,0,1-.8.147h-1.428v-4.093h1.428a2.184,2.184,0,0,1,.8.146,2.126,2.126,0,0,1,.667.408,1.985,1.985,0,0,1,.643,1.491A1.982,1.982,0,0,1,235.736,6140.384Z" transform="translate(-160.674 -6123.688)" fill="#333333"/><path d="M217.092,6137.916a3.974,3.974,0,0,0-2.231-2.239,4.753,4.753,0,0,0-3.428,0,3.974,3.974,0,0,0-2.231,2.239,4.8,4.8,0,0,0,0,3.444,3.975,3.975,0,0,0,2.231,2.239,4.753,4.753,0,0,0,3.428,0,3.975,3.975,0,0,0,2.231-2.239,4.8,4.8,0,0,0,0-3.444Zm-1.975,2.641a1.9,1.9,0,0,1-.418.648,1.951,1.951,0,0,1-.647.421,2.634,2.634,0,0,1-1.809,0,1.938,1.938,0,0,1-.647-.421,1.9,1.9,0,0,1-.419-.647,2.678,2.678,0,0,1,0-1.84,1.914,1.914,0,0,1,.418-.648,1.942,1.942,0,0,1,.647-.421,2.641,2.641,0,0,1,1.809,0,1.945,1.945,0,0,1,.647.421,1.908,1.908,0,0,1,.419.647,2.678,2.678,0,0,1,0,1.84Z" transform="translate(-157.824 -6123.689)" fill="#333333"/><g transform="translate(16.262 15.329)"><path d="M178.078,6150.356l-.021-.014-9.321-6.048q.827-.834,1.65-1.609l3.033,1.971-1.341-3.508q.937-.821,1.875-1.565Z" transform="translate(-168.736 -6139.582)" fill="#333333"/></g><path d="M174.045,6130.119c-.213.083-.429.171-.647.262a30.108,30.108,0,0,0-3.679,1.874h-2.644l-1.49-3.892-1.489,3.892H153.268l-3.294-2.136h12.462l3.151-8.223,3.147,8.223Z" transform="translate(-149.974 -6121.896)" fill="#333333"/><g transform="translate(4.921 8.049)"><path d="M181.853,6131.214c-1.362.563-9.482,2.934-20.337,15.829-.12.141-1.905,2.14-4.05,2.14h-1.344v0h-.471c1.649-4.3,3.45-8.936,3.839-9.931a2.109,2.109,0,0,0-.726-2.621c-.039-.025-.076-.053-.111-.074h2.28a1.69,1.69,0,0,1,1.7,1.5c0,.038.005.079.006.118a2.3,2.3,0,0,1-.153.875c-.517,1.382-1.2,3.177-1.652,4.344.141-.163.328-.377.507-.562a40.972,40.972,0,0,1,13.375-9.872,20.635,20.635,0,0,1,6.714-1.774A2.313,2.313,0,0,1,181.853,6131.214Z" transform="translate(-155.652 -6131.183)" fill="#333333"/></g><g transform="translate(93.746 8.223)"><path d="M265.07,6131.383h-1.548a1.414,1.414,0,0,0-1.322.916l-4.069,10.828h2.444l.64-1.853a1.413,1.413,0,0,1,1.335-.952h3.521l.967,2.805h2.444Zm-2.8,6.906,1.542-4.312,1.542,4.313Z" transform="translate(-258.132 -6131.383)" fill="#333333"/><g transform="translate(44.321 3.707)"><path d="M309.267,6135.66h2.443l2,5.117h.114l2.018-5.117h2.428l-3.461,8.037H312.7Z" transform="translate(-309.267 -6135.66)" fill="#333333"/></g><g transform="translate(29.69 3.51)"><path d="M298.14,6135.6a4.629,4.629,0,0,0-1.3-.172,4.058,4.058,0,0,0-1.682.345,4.26,4.26,0,0,0-.619.349v-.5h-2.149v8.037h2.149v-3.989c0-.071,0-.142.009-.209a2.872,2.872,0,0,1,.133-.673,2.252,2.252,0,0,1,.159-.377,1.311,1.311,0,0,1,.075-.13,2.034,2.034,0,0,1,.266-.328,1.8,1.8,0,0,1,.274-.232,2.291,2.291,0,0,1,.387-.214.2.2,0,0,1,.04-.017,1.93,1.93,0,0,1,.609-.1,2.656,2.656,0,0,1,.585.056,2,2,0,0,1,.434.159l.02-.071a.011.011,0,0,1,.011.006l.088-.234.63-1.671C298.217,6135.63,298.18,6135.616,298.14,6135.6Z" transform="translate(-292.386 -6135.433)" fill="#333333"/></g><g transform="translate(12.063 3.431)"><path d="M279.489,6137.849a4.134,4.134,0,0,0-.828-1.326,3.86,3.86,0,0,0-1.259-.892,3.571,3.571,0,0,0-1.444-.289H272.05v11.6h2.105v-3.215h1.8a3.572,3.572,0,0,0,1.444-.29,3.832,3.832,0,0,0,1.259-.892,4.1,4.1,0,0,0,.828-1.326,4.82,4.82,0,0,0,0-3.375Zm-1.977,2.535a1.99,1.99,0,0,1-.466.644,2.109,2.109,0,0,1-.667.408,2.165,2.165,0,0,1-.8.147h-1.428v-4.093h1.428a2.184,2.184,0,0,1,.8.146,2.127,2.127,0,0,1,.667.408,2.011,2.011,0,0,1,.466.644,2.12,2.12,0,0,1,0,1.7Z" transform="translate(-272.05 -6135.342)" fill="#333333"/></g><g transform="translate(20.833 3.431)"><path d="M289.607,6137.849a4.134,4.134,0,0,0-.828-1.326,3.848,3.848,0,0,0-1.259-.892,3.578,3.578,0,0,0-1.445-.289h-3.908v11.6h2.105v-3.215h1.8a3.579,3.579,0,0,0,1.445-.29,3.819,3.819,0,0,0,1.259-.892,4.1,4.1,0,0,0,.828-1.326,4.806,4.806,0,0,0,0-3.375Zm-1.977,2.535a2,2,0,0,1-.465.644,2.113,2.113,0,0,1-.667.408,2.158,2.158,0,0,1-.8.147h-1.428v-4.093H285.7a2.178,2.178,0,0,1,.8.146,2.131,2.131,0,0,1,.667.408,2.021,2.021,0,0,1,.465.644,2.111,2.111,0,0,1,0,1.7Z" transform="translate(-282.168 -6135.342)" fill="#333333"/></g><g transform="translate(63.072)"><path d="M331.205,6140.621a4.141,4.141,0,0,0,.828,1.326,3.855,3.855,0,0,0,1.259.892,3.575,3.575,0,0,0,1.445.289h3.908v-11.744H336.54v3.354h-1.8a3.575,3.575,0,0,0-1.445.29,3.846,3.846,0,0,0-1.259.892,4.128,4.128,0,0,0-.828,1.326,4.821,4.821,0,0,0,0,3.375Zm1.977-2.536a1.991,1.991,0,0,1,.466-.643,2.111,2.111,0,0,1,.667-.409,2.205,2.205,0,0,1,.8-.146h1.429v4.092h-1.429a2.2,2.2,0,0,1-.8-.145,2.13,2.13,0,0,1-.667-.41,2.072,2.072,0,0,1-.466-2.338Z" transform="translate(-330.9 -6131.383)" fill="#333333"/></g><g transform="translate(35.675 3.445)"><path d="M307.5,6137.916a3.976,3.976,0,0,0-2.23-2.239,4.755,4.755,0,0,0-3.429,0,3.976,3.976,0,0,0-2.23,2.239,4.8,4.8,0,0,0,0,3.444,3.977,3.977,0,0,0,2.23,2.239,4.755,4.755,0,0,0,3.429,0,3.977,3.977,0,0,0,2.23-2.239,4.8,4.8,0,0,0,0-3.444Zm-1.975,2.641a1.892,1.892,0,0,1-.418.648,1.933,1.933,0,0,1-.647.421,2.632,2.632,0,0,1-1.808,0,1.942,1.942,0,0,1-.647-.421,1.9,1.9,0,0,1-.418-.647,2.664,2.664,0,0,1,0-1.84,1.9,1.9,0,0,1,.418-.648,1.934,1.934,0,0,1,.647-.421,2.639,2.639,0,0,1,1.808,0,1.94,1.94,0,0,1,.647.421,1.906,1.906,0,0,1,.418.647,2.665,2.665,0,0,1,0,1.84Z" transform="translate(-299.291 -6135.357)" fill="#333333"/></g><g transform="translate(72.218 0.14)"><path d="M343.881,6132.727a1.214,1.214,0,1,1-1.21-1.183A1.186,1.186,0,0,1,343.881,6132.727Zm-2.125,0a.916.916,0,0,0,.922.944.945.945,0,0,0-.007-1.888A.918.918,0,0,0,341.755,6132.727Zm.728.62h-.274v-1.183a2.419,2.419,0,0,1,.454-.035.736.736,0,0,1,.41.085.331.331,0,0,1,.115.26.3.3,0,0,1-.244.274v.014a.348.348,0,0,1,.216.289.923.923,0,0,0,.087.3h-.3a1.036,1.036,0,0,1-.094-.289c-.022-.13-.094-.187-.245-.187h-.129Zm.007-.671h.13c.151,0,.274-.05.274-.172s-.08-.181-.252-.181a.611.611,0,0,0-.152.015Z" transform="translate(-341.453 -6131.544)" fill="#333333"/></g><g transform="translate(53.771 3.447)"><path d="M328.27,6141.749a4.521,4.521,0,0,1-1.506,1.6,4.188,4.188,0,0,1-2.313.609,4.434,4.434,0,0,1-1.7-.321,4.07,4.07,0,0,1-2.256-2.256,4.484,4.484,0,0,1-.321-1.721,4.407,4.407,0,0,1,.313-1.654,4.183,4.183,0,0,1,2.2-2.3,4.059,4.059,0,0,1,1.688-.346,4.394,4.394,0,0,1,1.728.322,3.533,3.533,0,0,1,1.268.888,3.853,3.853,0,0,1,.774,1.342,5.2,5.2,0,0,1,.263,1.68v.2a1.075,1.075,0,0,0-.016.181.909.909,0,0,0-.016.182h-6.076a2.262,2.262,0,0,0,.272.848,2.025,2.025,0,0,0,.511.592,1.959,1.959,0,0,0,.667.346,2.616,2.616,0,0,0,.741.107,2.1,2.1,0,0,0,1.226-.338,2.456,2.456,0,0,0,.765-.848Zm-1.96-3.128a1.377,1.377,0,0,0-.14-.477,1.683,1.683,0,0,0-.362-.494,1.915,1.915,0,0,0-.593-.379,2.182,2.182,0,0,0-.848-.148,1.971,1.971,0,0,0-1.219.4,2.09,2.09,0,0,0-.741,1.1Z" transform="translate(-320.169 -6135.36)" fill="#333333"/></g></g><path d="M248.528,6141.749a4.513,4.513,0,0,1-1.506,1.6,4.186,4.186,0,0,1-2.313.609,4.437,4.437,0,0,1-1.7-.321,4.064,4.064,0,0,1-2.255-2.256,4.484,4.484,0,0,1-.322-1.721,4.426,4.426,0,0,1,.313-1.654,4.183,4.183,0,0,1,2.2-2.3,4.062,4.062,0,0,1,1.688-.346,4.4,4.4,0,0,1,1.729.322,3.529,3.529,0,0,1,1.267.888,3.825,3.825,0,0,1,.774,1.342,5.18,5.18,0,0,1,.263,1.68v.2a1.171,1.171,0,0,0-.016.181.911.911,0,0,0-.016.182h-6.075a2.262,2.262,0,0,0,.271.848,2.051,2.051,0,0,0,.511.592,1.964,1.964,0,0,0,.667.346,2.615,2.615,0,0,0,.74.107,2.094,2.094,0,0,0,1.226-.338,2.458,2.458,0,0,0,.766-.848Zm-1.959-3.128a1.4,1.4,0,0,0-.14-.477,1.668,1.668,0,0,0-.362-.494,1.9,1.9,0,0,0-.592-.379,2.19,2.19,0,0,0-.849-.148,1.97,1.97,0,0,0-1.218.4,2.08,2.08,0,0,0-.741,1.1Z" transform="translate(-162.027 -6123.69)" fill="#333333"/></g></svg>