<svg xmlns="http://www.w3.org/2000/svg" xmlns:xlink="http://www.w3.org/1999/xlink" width="63" height="55" viewBox="0 0 63 55"><defs><style>.a{clip-path:url(#b);}.b{fill:#003057;}.c{fill:#eb7100;}</style><clipPath id="b"><rect width="63" height="55"/></clipPath></defs><g id="a" class="a"><g transform="translate(0.5 2)"><path class="b" d="M79.926,108.962l-.04-.027L61.317,96.886q1.647-1.658,3.289-3.206l6.04,3.928L67.974,90.62q1.869-1.636,3.735-3.12Z" transform="translate(-28.922 -56.963)"/><path class="b" d="M91.273,86.917c-.423.167-.853.34-1.287.522a60.1,60.1,0,0,0-7.331,3.734H77.39l-2.97-7.754-2.965,7.754H49.884l-6.562-4.256H68.147l6.277-16.38,6.27,16.38Z" transform="translate(-43.322 -70.537)"/><g transform="translate(9.804 16.035)"><path class="c" d="M100.964,79.507c-2.713,1.122-18.89,5.844-40.514,31.531-.238.283-3.795,4.263-8.069,4.263H49.7l0-.005h-.938c3.285-8.558,6.871-17.8,7.647-19.785a4.2,4.2,0,0,0-1.447-5.221c-.077-.05-.153-.1-.221-.148H59.29a3.363,3.363,0,0,1,3.379,2.99c.007.077.011.157.013.234a4.513,4.513,0,0,1-.306,1.744c-1.03,2.753-2.4,6.328-3.289,8.652.279-.324.655-.751,1.01-1.118,9.17-10.031,19.561-16.7,26.643-19.666,5.952-2.488,11.023-3.536,13.376-3.536A4.758,4.758,0,0,1,100.964,79.507Z" transform="translate(-48.768 -79.444)"/></g></g></g></svg>