<svg xmlns="http://www.w3.org/2000/svg" xmlns:xlink="http://www.w3.org/1999/xlink" width="88" height="88" viewBox="0 0 88 88"><defs><style>.a{clip-path:url(#b);}.b{fill:#fff;}.c{fill:#143157;}.d{fill:#e97324;}</style><clipPath id="b"><rect width="88" height="88"/></clipPath></defs><g id="a" class="a"><g transform="translate(11.553 9.832)"><path class="b" d="M279.06,1214.216l-11.195,11.195v11.927l5.552,5.552v34.585h45.661V1243l5.78-5.779v-10.689L313.425,1215.1Z" transform="translate(-263.655 -1211.47)"/><path class="c" d="M325.045,1219.65l-7.255-5.626a3.223,3.223,0,0,0-1.963-.676H282.146a3.23,3.23,0,0,0-1.963.676l-7.252,5.626a16.936,16.936,0,0,0-6.4,13.365,12.669,12.669,0,0,0,6.837,11.386v34.073a3.2,3.2,0,0,0,3.2,3.209h44.821a3.2,3.2,0,0,0,3.212-3.209v-34.06a12.663,12.663,0,0,0,6.825-11.387v-.013A16.9,16.9,0,0,0,325.045,1219.65Zm-48.188,5.058,3.208-2.482,3.186-2.459h31.484l3.171,2.459,3.212,2.482a9.586,9.586,0,0,1,1.587,1.574H275.27A9.586,9.586,0,0,1,276.857,1224.708Zm29.493,7.982a5.319,5.319,0,0,0-1.558,2.481,5.666,5.666,0,0,1-4.694,4.018l-1.767.025a.869.869,0,0,1-.18-.013l-.262-.013a5.643,5.643,0,0,1-4.8-4.093,5.04,5.04,0,0,0-1.508-2.406Zm-32.98,2.69a6.776,6.776,0,0,1-.427-2.365,3.055,3.055,0,0,1,.013-.338,3.073,3.073,0,0,0,.338.012h11.867a5.055,5.055,0,0,0-1.479,2.406,5.892,5.892,0,0,1-3.9,3.939,5.144,5.144,0,0,1-1.34.18A5.53,5.53,0,0,1,273.37,1235.38Zm44.824,39.9H279.781v-29.73a11.8,11.8,0,0,0,8.6-5.526,11.73,11.73,0,0,0,9.076,5.564l.351.028c.168.013.338.013.518.013h1.378c.171,0,.338-.013.468-.013l.326-.012a.267.267,0,0,1,.1-.016,11.818,11.818,0,0,0,8.955-5.6,11.793,11.793,0,0,0,8.633,5.551Zm6.825-42.248a6.706,6.706,0,0,1-.417,2.365,5.582,5.582,0,0,1-5.134,3.822,4.57,4.57,0,0,1-1.274-.18,5.867,5.867,0,0,1-3.9-3.939,5.156,5.156,0,0,0-1.482-2.406h11.857a2.959,2.959,0,0,0,.338-.012,3.025,3.025,0,0,1,.013.338Z" transform="translate(-266.533 -1213.347)"/><g transform="translate(20.319 34.554)"><path class="d" d="M284.534,1224.278l2.732,8.408h8.841l-7.153,5.2,2.732,8.409-7.153-5.2-7.153,5.2,2.732-8.409-7.153-5.2H281.8Z" transform="translate(-272.961 -1224.278)"/></g></g></g></svg>