<svg xmlns="http://www.w3.org/2000/svg" width="1278.678" height="27.924" viewBox="0 0 1278.678 27.924">
  <g id="Group_488" data-name="Group 488" transform="translate(-44.322 -6552.155)">
    <g id="Group_327" data-name="Group 327" transform="translate(1 495.155)">
      <g id="Group_324" data-name="Group 324">
        <path id="Path_392" data-name="Path 392" d="M579.227,6067.657h3.156v8.963h2.462v-8.963H588v-2.336h-8.774Z" fill="#333333"/>
        <path id="Path_393" data-name="Path 393" d="M595.849,6072.107a4.35,4.35,0,0,0,.884-.513,3.662,3.662,0,0,0,.718-.71,3.506,3.506,0,0,0,.489-.876,2.844,2.844,0,0,0,.182-1.026,4.018,4.018,0,0,0-.26-1.46,3.276,3.276,0,0,0-.758-1.159,3.477,3.477,0,0,0-1.223-.766,4.59,4.59,0,0,0-1.641-.276h-4.261v11.3h2.462v-5.061l3.55,5.061H598.8v-.158l-2.951-4.213Zm-.568-2.218a1.389,1.389,0,0,1-1.041.387h-1.8v-2.683h1.8a1.377,1.377,0,0,1,1.065.387,1.358,1.358,0,0,1,.355.955A1.307,1.307,0,0,1,595.281,6069.889Z" fill="#333333"/>
        <path id="Path_394" data-name="Path 394" d="M692.756,6072.3l-4.071-6.975h-2.841v11.3h2.43v-7.385h0l4.324,7.385h2.588v-11.3h-2.43Z" fill="#333333"/>
        <path id="Path_395" data-name="Path 395" d="M705.505,6066.883a5.255,5.255,0,0,0-1.846-1.152,6.911,6.911,0,0,0-2.446-.41H697.22v11.3h3.993a6.889,6.889,0,0,0,2.446-.411,5.227,5.227,0,0,0,1.846-1.152,4.949,4.949,0,0,0,1.16-1.783,6.8,6.8,0,0,0,0-4.608A4.97,4.97,0,0,0,705.505,6066.883Zm-1.1,5.421a2.719,2.719,0,0,1-.64,1.049,2.919,2.919,0,0,1-1.1.687,4.56,4.56,0,0,1-1.578.244h-1.4v-6.627h1.4a4.56,4.56,0,0,1,1.578.244,2.93,2.93,0,0,1,1.1.686,2.728,2.728,0,0,1,.64,1.05,4.439,4.439,0,0,1,0,2.667Z" fill="#333333"/>
        <path id="Path_396" data-name="Path 396" d="M713.152,6069.919l-.7-.237a4.54,4.54,0,0,1-1.345-.568.912.912,0,0,1-.376-.721.789.789,0,0,1,.891-.729h4v-2.343h-4.28a3.016,3.016,0,0,0-3.016,3.016,2.693,2.693,0,0,0,.238,1.147,3.238,3.238,0,0,0,.617.909,3.967,3.967,0,0,0,.846.673,5.333,5.333,0,0,0,.909.435l.7.253a9.764,9.764,0,0,1,1,.419,3.316,3.316,0,0,1,.633.4,1.211,1.211,0,0,1,.34.427,1.2,1.2,0,0,1,.1.5v0a.977.977,0,0,1-.976.973h-4.4v2.148H713a3.174,3.174,0,0,0,3.174-3.174,3.06,3.06,0,0,0-.791-2.214A5.5,5.5,0,0,0,713.152,6069.919Z" fill="#333333"/>
        <path id="Path_397" data-name="Path 397" d="M680.879,6065.321h-2.84l-4.229,11.3h.546l-3.136-4.478.075-.035a4.369,4.369,0,0,0,.883-.513,3.662,3.662,0,0,0,.718-.71,3.506,3.506,0,0,0,.489-.876,2.844,2.844,0,0,0,.182-1.026,4.018,4.018,0,0,0-.26-1.46,3.276,3.276,0,0,0-.758-1.159,3.477,3.477,0,0,0-1.223-.766,4.59,4.59,0,0,0-1.641-.276h-4.261v11.3h2.462v-4.072l-.019-1.017,3.57,5.089h5.087l.868-2.525h4.134l.868,2.525h2.714Zm-11.194,4.955h-1.8v-2.683h1.8a1.377,1.377,0,0,1,1.065.387,1.358,1.358,0,0,1,.355.955,1.307,1.307,0,0,1-.379.954A1.389,1.389,0,0,1,669.685,6070.276Zm8.5,1.578,1.278-3.686,1.278,3.686Z" fill="#333333"/>
        <path id="Path_398" data-name="Path 398" d="M717.038,6065.606h.48v1.412h.324v-1.412h.48v-.308h-1.285Z" fill="#333333"/>
        <path id="Path_399" data-name="Path 399" d="M719.944,6065.3l-.526.91H719.4l-.526-.91h-.319v1.72h.319v-.848l-.019-.288h.019l.44.771h.194l.437-.771h.019l-.019.288v.848h.322v-1.72Z" fill="#333333"/>
        <path id="Path_400" data-name="Path 400" d="M606.552,6072.138a2.743,2.743,0,0,1-.52,1.72,2.03,2.03,0,0,1-3.031,0,2.744,2.744,0,0,1-.52-1.72v-6.817h-2.462v6.659a6.281,6.281,0,0,0,.316,2.075,4.326,4.326,0,0,0,.9,1.539,3.746,3.746,0,0,0,1.42.955,5.137,5.137,0,0,0,1.863.323,4.63,4.63,0,0,0,1.862-.363,4.064,4.064,0,0,0,1.42-1.01,4.5,4.5,0,0,0,.9-1.546,5.935,5.935,0,0,0,.316-1.973v-6.659h-2.462Z" fill="#333333"/>
        <path id="Path_401" data-name="Path 401" d="M615.719,6069.919l-.7-.237a4.544,4.544,0,0,1-1.344-.568.912.912,0,0,1-.376-.721.789.789,0,0,1,.891-.729h4v-2.343h-4.28a3.016,3.016,0,0,0-3.016,3.016,2.708,2.708,0,0,0,.237,1.147,3.278,3.278,0,0,0,.617.909,3.992,3.992,0,0,0,.846.673,5.3,5.3,0,0,0,.91.435l.7.253a9.764,9.764,0,0,1,1,.419,3.316,3.316,0,0,1,.633.4,1.137,1.137,0,0,1,.443.926v0a.977.977,0,0,1-.977.973h-4.4v2.148h4.672a3.174,3.174,0,0,0,3.173-3.174,3.059,3.059,0,0,0-.79-2.214A5.5,5.5,0,0,0,615.719,6069.919Z" fill="#333333"/>
        <path id="Path_402" data-name="Path 402" d="M661.659,6070.828v-.158a2.864,2.864,0,0,0,1.065-.915,2.547,2.547,0,0,0,.45-1.546,2.408,2.408,0,0,0-.268-1.1,2.908,2.908,0,0,0-.742-.923,3.721,3.721,0,0,0-1.128-.631,4.12,4.12,0,0,0-1.413-.237h-14.1L642.337,6057l-3.19,8.322H620.133v2.343h3.156v8.956h2.462v-8.956h15.218l1.369-3.574,1.368,3.574h6.2l-4.779,3.7,2.346,6.133-5.128-3.975-5.141,3.984,2.353-6.146-2.015-1.562h-.1l0-.011h-7.946l3.022,2.342h4.018l.013.01-4.894,12.781,10.692-8.287,10.69,8.286-4.893-12.781,6.9-5.346v9.824h4.719a5.231,5.231,0,0,0,1.522-.213,3.7,3.7,0,0,0,1.215-.616,2.9,2.9,0,0,0,.8-.978,2.846,2.846,0,0,0,.292-1.3,2.7,2.7,0,0,0-.513-1.673A3.033,3.033,0,0,0,661.659,6070.828Zm-4.166-3.329h1.957a1.469,1.469,0,0,1,.962.3,1.183,1.183,0,0,1,0,1.705,1.567,1.567,0,0,1-1.026.3h-1.893Zm2.1,6.911h-2.1v-2.525h2.035q1.594,0,1.595,1.263T659.592,6074.41Z" fill="#333333"/>
      </g>
      <g id="Group_325" data-name="Group 325">
        <path id="Path_403" data-name="Path 403" d="M562.827,6076.62,567,6065.311h1.874l4.136,11.309H571.2l-.969-2.763h-4.621l-.969,2.763Zm3.264-4.12h3.651l-1.826-5.154Z" fill="#333333"/>
      </g>
      <g id="Group_326" data-name="Group 326">
        <path id="Path_404" data-name="Path 404" d="M730.73,6076.814a5.509,5.509,0,0,1-2.9-.736,4.919,4.919,0,0,1-1.882-2.051,7.373,7.373,0,0,1,0-6.107,4.977,4.977,0,0,1,1.882-2.06,5.462,5.462,0,0,1,2.9-.743,5.178,5.178,0,0,1,3.248.969,4.324,4.324,0,0,1,1.6,2.714h-1.906a2.685,2.685,0,0,0-.97-1.567,3.135,3.135,0,0,0-1.987-.582,3.339,3.339,0,0,0-2.681,1.156,4.728,4.728,0,0,0-.986,3.174,4.673,4.673,0,0,0,.986,3.151,3.35,3.35,0,0,0,2.681,1.147,3.259,3.259,0,0,0,1.987-.55,2.525,2.525,0,0,0,.97-1.5h1.906a4.216,4.216,0,0,1-1.6,2.633A5.234,5.234,0,0,1,730.73,6076.814Z" fill="#333333"/>
        <path id="Path_405" data-name="Path 405" d="M742.686,6076.814a5.675,5.675,0,0,1-2.941-.744,5.214,5.214,0,0,1-1.971-2.06,6.876,6.876,0,0,1,0-6.09,5.22,5.22,0,0,1,1.971-2.06,6.193,6.193,0,0,1,5.881,0,5.167,5.167,0,0,1,1.963,2.06,6.946,6.946,0,0,1,0,6.09,5.16,5.16,0,0,1-1.963,2.06A5.673,5.673,0,0,1,742.686,6076.814Zm0-1.535a3.873,3.873,0,0,0,2.027-.517,3.517,3.517,0,0,0,1.349-1.487,5.744,5.744,0,0,0,0-4.62,3.521,3.521,0,0,0-1.349-1.487,3.882,3.882,0,0,0-2.027-.517,3.927,3.927,0,0,0-2.036.517,3.452,3.452,0,0,0-1.349,1.487,5.832,5.832,0,0,0,0,4.62,3.448,3.448,0,0,0,1.349,1.487A3.918,3.918,0,0,0,742.686,6075.279Z" fill="#333333"/>
        <path id="Path_406" data-name="Path 406" d="M750.2,6076.62v-11.309h2.02l3.828,7.528,3.813-7.528h2.02v11.309h-1.713v-8.353L756.709,6075h-1.325l-3.473-6.721v8.337Z" fill="#333333"/>
        <path id="Path_407" data-name="Path 407" d="M764.173,6076.62v-11.309h3.958a4.823,4.823,0,0,1,2.2.444,3,3,0,0,1,1.3,1.212,3.7,3.7,0,0,1,.016,3.425,2.941,2.941,0,0,1-1.285,1.219,4.815,4.815,0,0,1-2.229.453h-2.246v4.556Zm1.712-5.962h2.165a2.393,2.393,0,0,0,1.737-.525,1.93,1.93,0,0,0,.525-1.43,1.976,1.976,0,0,0-.525-1.462,2.393,2.393,0,0,0-1.737-.525h-2.165Z" fill="#333333"/>
        <path id="Path_408" data-name="Path 408" d="M771.717,6076.62l4.169-11.309h1.874l4.135,11.309h-1.809l-.969-2.763H774.5l-.969,2.763Zm3.264-4.12h3.651l-1.826-5.154Z" fill="#333333"/>
        <path id="Path_409" data-name="Path 409" d="M783.479,6076.62v-11.309h1.712l5.671,8.514v-8.514h1.713v11.309h-1.713l-5.671-8.514v8.514Z" fill="#333333"/>
        <path id="Path_410" data-name="Path 410" d="M797.744,6076.62v-4.169l-3.748-7.14h1.939l2.665,5.46,2.65-5.46h1.923l-3.716,7.14v4.169Z" fill="#333333"/>
      </g>
    </g>
    <line id="Line_33" data-name="Line 33" x1="501" transform="translate(44.322 6566.117)" fill="none" stroke="#dbdde1" stroke-miterlimit="10" stroke-width="1"/>
    <line id="Line_34" data-name="Line 34" x1="501" transform="translate(822 6565.655)" fill="none" stroke="#dbdde1" stroke-miterlimit="10" stroke-width="1"/>
  </g>
</svg>
