<svg xmlns="http://www.w3.org/2000/svg" width="159.737" height="29.756" viewBox="0 0 159.737 29.756"><path d="M648.2,6132.983a1.142,1.142,0,1,1-1.138-1.111A1.117,1.117,0,0,1,648.2,6132.983Zm-2,0a.861.861,0,0,0,.867.888.85.85,0,0,0,.847-.88.857.857,0,1,0-1.714-.007Zm.684.583h-.257v-1.111a2.273,2.273,0,0,1,.426-.034.689.689,0,0,1,.387.082.309.309,0,0,1,.108.245.285.285,0,0,1-.231.257v.013a.329.329,0,0,1,.2.271.827.827,0,0,0,.081.278h-.278a.981.981,0,0,1-.088-.271c-.02-.122-.088-.177-.23-.177h-.122Zm.007-.63h.122c.142,0,.257-.047.257-.162s-.074-.17-.237-.17a.637.637,0,0,0-.142.014Z" transform="translate(-488.46 -6121.4)" fill="#333333"/><path d="M494.144,6139.939V6131.9h2.477v7.536a1.615,1.615,0,0,0,1.616,1.615h1.625a1.615,1.615,0,0,0,1.616-1.615V6131.9h2.477v8.036a3.4,3.4,0,0,1-3.4,3.4h-3.012A3.4,3.4,0,0,1,494.144,6139.939Z" transform="translate(-468.237 -6121.403)" fill="#333333"/><path d="M470.681,6134.188v9.151H468.2v-9.151h-3.95V6131.9h10.377v2.284Z" transform="translate(-464.254 -6121.403)" fill="#333333"/><path d="M529.863,6134.188v9.151h-2.476v-9.151h-3.95V6131.9h10.376v2.284Z" transform="translate(-472.14 -6121.403)" fill="#333333"/><path d="M515.679,6136.484h-2.6a1.206,1.206,0,0,1-1.217-1.057,1.172,1.172,0,0,1,1.166-1.287h5.08l.952-2.237h-6.3a3.372,3.372,0,0,0-3.372,3.372h0a3.39,3.39,0,0,0,3.39,3.389h2.64a1.172,1.172,0,0,1,1.172,1.172v.094a1.171,1.171,0,0,1-1.172,1.17h-5.077l-.953,2.238h6.27a3.4,3.4,0,0,0,3.4-3.394v-.073A3.381,3.381,0,0,0,515.679,6136.484Z" transform="translate(-470.268 -6121.403)" fill="#333333"/><path d="M486.42,6143.339h2.895l-2.786-4.077a3.886,3.886,0,0,0,1.733-5.666,3.377,3.377,0,0,0-2.942-1.692h-5.853v11.436h2.477v-3.79h1.939Zm-4.476-5.967v-3.233h2.791a1.616,1.616,0,0,1,1.616,1.616h0a1.616,1.616,0,0,1-1.616,1.616Z" transform="translate(-466.281 -6121.403)" fill="#333333"/><path d="M587.921,6139.939V6131.9H590.4v7.536a1.616,1.616,0,0,0,1.616,1.615h1.625a1.615,1.615,0,0,0,1.616-1.615V6131.9h2.477v8.036a3.4,3.4,0,0,1-3.4,3.4H591.32A3.4,3.4,0,0,1,587.921,6139.939Z" transform="translate(-480.733 -6121.403)" fill="#333333"/><path d="M610.64,6143.339l-1.03-2.525h-4.76l-1.03,2.525H601.3l4.866-11.436h2.2l4.866,11.436Zm-3.41-8.363-1.5,3.651h2.992Z" transform="translate(-482.515 -6121.403)" fill="#333333"/><path d="M638.9,6143.339h-6.976V6131.9H638.9a3.4,3.4,0,0,1,3.4,3.4v4.636A3.4,3.4,0,0,1,638.9,6143.339Zm-.808-9.2H634.4v6.964h3.692a1.616,1.616,0,0,0,1.616-1.617v-3.732A1.616,1.616,0,0,0,638.095,6134.14Z" transform="translate(-486.596 -6121.403)" fill="#333333"/><path d="M578.164,6138.8h2.493v2.284h-3.775a1.617,1.617,0,0,1-1.616-1.616V6135.8a1.616,1.616,0,0,1,1.616-1.616h5.2l.972-2.284h-6.976a3.4,3.4,0,0,0-3.4,3.4v4.636a3.4,3.4,0,0,0,3.4,3.4h5.053a1.924,1.924,0,0,0,1.923-1.924v-4.751h-4.889Z" transform="translate(-478.701 -6121.403)" fill="#333333"/><path d="M624.452,6143.339h2.9l-2.786-4.077a3.886,3.886,0,0,0,1.733-5.666,3.376,3.376,0,0,0-2.942-1.692H617.5v11.436h2.477v-3.79h1.939Zm-4.476-5.967v-3.233h2.791a1.616,1.616,0,0,1,1.616,1.616h0a1.616,1.616,0,0,1-1.616,1.616Z" transform="translate(-484.674 -6121.403)" fill="#333333"/><g transform="translate(67.359)"><path d="M559.92,6128.286v-1.024a7.474,7.474,0,0,0-14.947,0v1.024l-3.005.643v8.6c0,8.268,9.1,11.538,9.489,11.673l.989.345.99-.345c.387-.135,9.489-3.405,9.489-11.673v-8.6Zm-12.493-1.024a5.02,5.02,0,0,1,10.039,0v.5l-5.02-1.075-5.019,1.075Zm14,10.264c0,7.216-8.135,10.134-8.481,10.255l-.495.172-.494-.172c-.347-.121-8.482-3.039-8.482-10.255v-7.382l8.976-1.922,8.976,1.922Z" transform="translate(-541.968 -6119.789)" fill="#333333" fill-rule="evenodd"/><path d="M554.057,6147.894s7.474-2.6,7.474-8.835v-6.167l-7.474-1.6Z" transform="translate(-543.579 -6121.322)" fill="#333333" fill-rule="evenodd"/><path d="M545.435,6132.891v6.167c0,6.231,7.473,8.835,7.473,8.835v-16.6Z" transform="translate(-542.43 -6121.322)" fill="#333333" fill-rule="evenodd"/><g transform="translate(8.68 14.27)"><path d="M555.579,6138.051a1.8,1.8,0,1,0-2.532,1.641l-.287,3.438H554.8l-.288-3.437A1.8,1.8,0,0,0,555.579,6138.051Z" transform="translate(-551.983 -6136.253)" fill="#f7f7f7" fill-rule="evenodd"/></g></g></svg>