<svg xmlns="http://www.w3.org/2000/svg" xmlns:xlink="http://www.w3.org/1999/xlink" width="88" height="88" viewBox="0 0 88 88"><defs><style>.a{clip-path:url(#b);}.b{fill:#fff;}.c{fill:#e97324;}.d{fill:#143157;}</style><clipPath id="b"><rect width="88" height="88"/></clipPath></defs><g id="a" class="a"><g transform="translate(15.301 9.818)"><path class="b" d="M415.122,1160.765v62.027l51.1-30.62Z" transform="translate(-410.75 -1158.007)"/><path class="c" d="M428.572,1166.675l2.732,8.409h8.841l-7.153,5.2,2.732,8.409-7.153-5.2-7.153,5.2,2.732-8.409-7.153-5.2h8.841Z" transform="translate(-406.695 -1145.235)"/><path class="d" d="M420.188,1228.256a6.454,6.454,0,0,1-6.449-6.452v-55.462a6.449,6.449,0,0,1,9.859-5.475l44.5,27.732h0a6.446,6.446,0,0,1,0,10.947l-44.5,27.733A6.454,6.454,0,0,1,420.188,1228.256Zm.022-61.948-.06,55.5,44.559-27.7v-.066Z" transform="translate(-413.739 -1159.892)"/></g></g></svg>