<svg id="Group_812" data-name="Group 812" xmlns="http://www.w3.org/2000/svg" width="169.886" height="25.586" viewBox="0 0 169.886 25.586">
  <g id="Group_808" data-name="Group 808">
    <path id="Path_996" data-name="Path 996" d="M492.97,20.376a2.774,2.774,0,0,1,3.182.161c.489.372.618.371,1.1-.007l.9-.706c.241-.19.369-.358.379-.53s-.1-.348-.321-.554a5.356,5.356,0,0,0-4.778-1.386,5.5,5.5,0,0,0-4.5,5.538q0,.282.034.572a5.434,5.434,0,0,0,3.386,4.36,5.736,5.736,0,0,0,.633.226,5.913,5.913,0,0,0,1.579.227,5.191,5.191,0,0,0,.946-.09h0a5.17,5.17,0,0,0,1.048-.321,5.681,5.681,0,0,0,1.59-1.013.713.713,0,0,0,.292-.5.686.686,0,0,0-.286-.495c-.294-.261-.6-.51-.9-.762-.519-.432-.637-.435-1.191-.045a2.809,2.809,0,0,1-3.964-.74,2.771,2.771,0,0,1-.466-1.6A2.814,2.814,0,0,1,492.97,20.376Z" transform="translate(-338.369 -11.94)" fill="#333" fill-rule="evenodd"/>
    <path id="Path_997" data-name="Path 997" d="M371.086,18.729h0a.55.55,0,0,0-.628-.571c-.431-.008-.862,0-1.292,0-.619,0-.782.165-.782.792q0,2.216,0,4.432,0,2.179,0,4.358h0c0,.761.133.892.909.892h.923c.728,0,.879-.152.879-.891h0v0q0-4.355,0-8.711A2.409,2.409,0,0,0,371.086,18.729Z" transform="translate(-254.943 -12.563)" fill="#333" fill-rule="evenodd"/>
    <path id="Path_998" data-name="Path 998" d="M289.3,22.332l-.006-.008a.433.433,0,0,0-.057-.074.58.58,0,0,0-.426-.147q-1.941-.014-3.88,0a.544.544,0,0,0-.6.6c-.015.27-.008.542-.005.813a.821.821,0,0,0,.164.591.8.8,0,0,0,.587.167c.527,0,1.054,0,1.581,0a.973.973,0,0,1,.036.515.531.531,0,0,1-.021.058.951.951,0,0,1-.476.5,2.879,2.879,0,0,1-3.488-.529c-.026-.027-.053-.052-.078-.08a2.852,2.852,0,0,1-.2-3.6,2.788,2.788,0,0,1,3.935-.559c.5.381.629.38,1.13-.01q.437-.34.869-.686c.306-.244.428-.454.365-.681a1,1,0,0,0-.3-.428l-.008-.009h0a5.231,5.231,0,0,0-3.834-1.454,5.452,5.452,0,0,0-5.262,6.65A5.25,5.25,0,0,0,281.1,27a5.611,5.611,0,0,0,1.946,1.012,5.377,5.377,0,0,0,5.471-1.152,2.021,2.021,0,0,0,.863-1.409c.019-.923.013-1.847,0-2.771A.7.7,0,0,0,289.3,22.332Z" transform="translate(-193.215 -11.974)" fill="#333" fill-rule="evenodd"/>
    <path id="Path_999" data-name="Path 999" d="M194.786,26.025a1.249,1.249,0,0,0-.539-.081h-3.582v-.456q0-3.307,0-6.613a.768.768,0,0,0-.151-.558.753.753,0,0,0-.551-.157c-.406,0-.813,0-1.219,0-.611,0-.765.153-.766.764q0,2.032,0,4.064,0,2.457,0,4.914a.851.851,0,0,0,.141.555.591.591,0,0,0,.481.171q2.919.013,5.837,0c.422,0,.594-.191.608-.622s.007-.837,0-1.256S194.989,26.126,194.786,26.025Z" transform="translate(-130.092 -12.566)" fill="#333" fill-rule="evenodd"/>
    <path id="Path_1000" data-name="Path 1000" d="M36.08,1.876a8.3,8.3,0,0,0-1.955-.322,1.036,1.036,0,0,0-.778.19h0c-.666.8-1.291,1.641-1.888,2.5-.563.806-1.093,1.637-1.6,2.478C28.349,9.2,26.686,11.58,24.981,13.93c-.339.467-.67.94-1,1.413-.273.389-.551.774-.824,1.163-.3.427-.6.854-.9,1.276-.576.8-1.161,1.592-1.8,2.342a2.75,2.75,0,0,1-.456.436l-.024.016c-.044.031-.087.062-.131.088a1.649,1.649,0,0,1-2.006-.3,4.2,4.2,0,0,1-.632-.617c-.937-1.154-1.86-2.32-2.791-3.481-1.116-1.392-2.251-2.77-3.348-4.177C10.03,10.758,9,9.423,8.025,8.048,6.938,6.514,5.918,4.932,4.87,3.371a2.673,2.673,0,0,1-.148-.254C4.4,2.5,4.032,1.957,3.212,2a5.761,5.761,0,0,1-.848-.091C1.8,2,1.136,2.1.472,2.222A.708.708,0,0,0,.056,2.4c-.093.113-.045.279.135.544.576.842,1.149,1.688,1.757,2.508.716.966,1.469,1.906,2.2,2.861.127.165.229.348.345.521.563.835,1.1,1.692,1.7,2.5.735.984,1.537,1.917,2.295,2.884.668.851,1.3,1.734,1.976,2.575,1.484,1.836,3.058,3.6,4.463,5.5.985,1.329,2.076,2.559,3.124,3.828a1.355,1.355,0,0,0,.577.433,1.646,1.646,0,0,0,1.34-.064,2.111,2.111,0,0,0,.65-.581c1.3-1.67,2.623-3.318,3.766-5.105.483-.754,1.064-1.446,1.6-2.162,1.031-1.364,2.107-2.7,3.09-4.093,2.489-3.54,4.939-7.107,7.4-10.666.2-.292.371-.606.545-.916.036-.064.06-.194.025-.228C36.737,2.428,36.457,2.007,36.08,1.876Z" transform="translate(-0.01 -1.071)" fill="#333" fill-rule="evenodd"/>
    <path id="Path_1001" data-name="Path 1001" d="M49.356,1.2q1.425,1.974,2.851,3.948a2.5,2.5,0,0,0,.266.3.468.468,0,0,0,.405.165.414.414,0,0,0,.04-.011.368.368,0,0,0,.042-.012.545.545,0,0,0,.165-.111,4.857,4.857,0,0,0,.742-.763c.8-1.191,1.576-2.4,2.357-3.609A4.375,4.375,0,0,0,56.516.6a.354.354,0,0,0-.287-.56A3.175,3.175,0,0,0,55.752,0c-.775,0-1.55,0-2.324,0V.029c-1.2.038-2.408.063-3.611.119a1.962,1.962,0,0,0-.53.073c-.275.1-.288.33.032.913A.625.625,0,0,0,49.356,1.2Z" transform="translate(-33.968 0.001)" fill="#333" fill-rule="evenodd"/>
    <path id="Path_1002" data-name="Path 1002" d="M29.027,6.63c.961,1.456,2.013,2.852,3.026,4.274q.5.705,1,1.412c.158.222.317.443.475.664q.491.687.985,1.371c.172.237.35.468.528.7.113.147.225.294.339.439l.478.609a.973.973,0,0,0,.207.2.786.786,0,0,0,.756.087,2.175,2.175,0,0,0,.9-.592q1.111-1.4,2.122-2.882c1.026-1.5,1.98-3.055,3.022-4.546C44.53,6,46.234,3.661,47.91,1.307a2.479,2.479,0,0,0,.215-.513h0a1.771,1.771,0,0,0-.516-.115c-.955.078-1.907.231-2.862.258a1.935,1.935,0,0,0-1.6.952c-.071.1-.145.2-.211.3-1.464,2.288-2.919,4.581-4.4,6.861a9.693,9.693,0,0,1-1.078,1.4.951.951,0,0,1-1.333.172,6.831,6.831,0,0,1-.943-.868c-.017-.019-.036-.038-.052-.057a30.4,30.4,0,0,1-2.771-4.172q-.3-.493-.6-.984l-.054-.087c-.605-.985-1.215-1.967-1.785-2.971a2.361,2.361,0,0,0-.14-.219,1.473,1.473,0,0,0-1.38-.632c-.024,0-.049,0-.074,0L28.315.557h0c-.655.153-1.312.3-1.966.461-.552.136-.622.277-.327.76C27.012,3.4,27.98,5.043,29.027,6.63Z" transform="translate(-17.893 -0.385)" fill="#333" fill-rule="evenodd"/>
    <path id="Path_1003" data-name="Path 1003" d="M395.722,18.144c-.345-.008-.691.019-1.034-.007a1.038,1.038,0,0,0-.5.07,1.075,1.075,0,0,0-.527.589c-.854,1.873-1.732,3.736-2.624,5.651-.073-.15-.128-.257-.179-.365-.833-1.793-1.67-3.583-2.494-5.38a.846.846,0,0,0-.892-.563c-.295.016-.591,0-.887,0a1.45,1.45,0,0,0-.59.08c-.216.1-.267.325-.267.783q0,2.973,0,5.947c0,.985-.006,1.97,0,2.955.005.536.183.7.719.707.357,0,.714,0,1.071,0a2.535,2.535,0,0,0,.471-.032c.365-.071.437-.285.437-.858V24.57a.5.5,0,0,1,.166.237c.447,1.064.907,2.123,1.335,3.195.222.556.643.625,1.16.623a1.53,1.53,0,0,0,.495-.07.89.89,0,0,0,.547-.562c.424-1.06.881-2.108,1.326-3.16.046-.109.1-.214.151-.321.053,1.173.051,2.317.055,3.462,0,.452.169.628.621.638.48.011.961.014,1.441,0a.953.953,0,0,0,.275-.044c.231-.079.335-.264.335-.578q.006-4.617,0-9.235C396.339,18.343,396.141,18.154,395.722,18.144Z" transform="translate(-266.948 -12.549)" fill="#333" fill-rule="evenodd"/>
    <path id="Path_1004" data-name="Path 1004" d="M322.643,20.846c1.182,0,2.364,0,3.545,0,.488,0,.663-.191.666-.676s.007-.96,0-1.44h0a.515.515,0,0,0-.546-.562c-.122-.009-.246,0-.369,0q-2.862,0-5.724,0c-.52,0-.68.156-.712.674,0,.074,0,.148,0,.221q0,4.352,0,8.7v.01a2.494,2.494,0,0,0,.007.258c.045.432.206.584.636.6.172.007.345,0,.517,0q2.733,0,5.465,0c.571,0,.728-.162.73-.72q0-.627,0-1.255h0c0-.536-.171-.71-.7-.711q-1.772,0-3.545,0h-.384v-1.3h.428c.788,0,1.576,0,2.364,0,.623,0,.792-.179.794-.789,0-.369.011-.739,0-1.108h0a.542.542,0,0,0-.6-.59c-.382-.008-.763,0-1.145,0h-1.844V20.846Z" transform="translate(-221.113 -12.567)" fill="#333" fill-rule="evenodd"/>
    <path id="Path_1005" data-name="Path 1005" d="M532.292,18.161q-3.509-.006-7.017,0a.665.665,0,0,0-.495.155.714.714,0,0,0-.16.5c-.01.369,0,.739,0,1.108,0,.791.127.918.918.919h1.89v4.7c0,.776,0,1.551,0,2.327,0,.573.185.754.749.759.357,0,.714,0,1.071,0,.375,0,.6-.035.726-.162s.164-.345.164-.713q0-2.6,0-5.208c0-.414,0-.829,0-1.263v-.442c.753,0,1.453.007,2.153,0a.826.826,0,0,0,.408-.09.6.6,0,0,0,.246-.569q.012-.683,0-1.367C532.936,18.356,532.749,18.162,532.292,18.161Z" transform="translate(-363.064 -12.566)" fill="#333" fill-rule="evenodd"/>
    <path id="Path_1006" data-name="Path 1006" d="M141.883,18.067c-.449-.016-.9-.009-1.348,0h-.019c-.545.007-.728.15-.911.68-.445,1.288-.891,2.576-1.347,3.9L137.8,23.97c-.073-.194-.128-.329-.176-.467-.549-1.59-1.1-3.179-1.642-4.771a1,1,0,0,0-.376-.551.736.736,0,0,0-.358-.106c-.016,0-.029,0-.046,0h-.024c-.522-.007-1.044-.018-1.564.008-.448.022-.606.271-.477.7.091.305.209.6.314.9q1.419,4.109,2.837,8.219c.185.536.356.656.923.659h0c.406,0,.813,0,1.219,0,.04,0,.075,0,.111-.005l.063,0c.022,0,.04-.006.061-.009s.06-.007.087-.013l.007,0a.586.586,0,0,0,.352-.219,1.179,1.179,0,0,0,.175-.345q1.574-4.563,3.137-9.129C142.6,18.33,142.423,18.086,141.883,18.067Z" transform="translate(-92.11 -12.496)" fill="#333" fill-rule="evenodd"/>
    <path id="Path_1007" data-name="Path 1007" d="M223.724,25.939h-3.591v-.446q0-3.2,0-6.39v-.02c0-.1,0-.209-.006-.312-.041-.444-.217-.609-.664-.615s-.911-.006-1.367,0c-.424.005-.621.143-.665.505a1.43,1.43,0,0,0-.009.169q-.007,4.559,0,9.117v.005h0c0,.463.192.67.644.672q2.9.012,5.8,0c.387,0,.576-.15.624-.483,0-.013,0-.028,0-.041,0-.036.008-.073.009-.113h0c.011-.418,0-.837,0-1.256C224.5,26.1,224.34,25.939,223.724,25.939Z" transform="translate(-150.469 -12.561)" fill="#333" fill-rule="evenodd"/>
    <path id="Path_1008" data-name="Path 1008" d="M173.3,18.677c0-.01,0-.022,0-.032a.88.88,0,0,0-.02-.1c0-.013,0-.028-.008-.041s-.008-.018-.012-.028a.419.419,0,0,0-.192-.237.871.871,0,0,0-.412-.085c-.431-.006-.861,0-1.292,0-.573,0-.739.172-.739.754q0,2.216,0,4.431,0,2.271,0,4.542c0,.013,0,.023,0,.035a1.02,1.02,0,0,0,.082.453c.1.19.3.255.667.257s.714,0,1.071,0c.742,0,.867-.123.867-.851h0q0-3.526,0-7.052c0-.32,0-.64,0-.96s0-.64,0-.96C173.31,18.76,173.306,18.718,173.3,18.677Z" transform="translate(-118.084 -12.564)" fill="#333" fill-rule="evenodd"/>
  </g>
  <path id="Path_1009" data-name="Path 1009" d="M254.831,27.773q-.691-1.981-1.384-3.962-.876-2.5-1.755-5c-.183-.52-.354-.643-.89-.647-.234,0-.468,0-.7,0h-.591c-.679,0-.8.085-1.024.715q-.381,1.076-.759,2.153-1.185,3.369-2.369,6.738c-.139.4-.124.634.072.758a1.037,1.037,0,0,0,.518.107l.039,0c.455,0,.911,0,1.366,0h0a.744.744,0,0,0,.779-.549c.119-.348.225-.7.37-1.039a.416.416,0,0,1,.3-.216q.655-.013,1.31-.013t1.311.013a.417.417,0,0,1,.3.219c.142.339.246.693.36,1.043a.713.713,0,0,0,.742.541h0c.468,0,.936,0,1.4,0C254.881,28.63,255.047,28.393,254.831,27.773Zm-5.609-3.29.871-2.845.962,2.845Z" transform="translate(-169.741 -12.568)" fill="#333" fill-rule="evenodd"/>
  <path id="Path_1010" data-name="Path 1010" d="M464.7,27.788q-1.581-4.537-3.173-9.069a.722.722,0,0,0-.8-.563c-.5,0-1.009.009-1.514,0a.746.746,0,0,0-.8.56c-.223.65-.457,1.3-.685,1.944q-1.244,3.543-2.487,7.087a1.559,1.559,0,0,0-.1.416c-.018.341.205.466.734.468q.609,0,1.219,0c.606,0,.758-.115.959-.706.125-.369.255-.736.382-1.1h3.083c.149.43.3.833.427,1.242a.739.739,0,0,0,.8.565c.455-.007.911,0,1.366,0,.393,0,.607-.1.661-.313A.965.965,0,0,0,464.7,27.788Zm-5.613-3.308.871-2.851.964,2.851Z" transform="translate(-314.983 -12.562)" fill="#333" fill-rule="evenodd"/>
  <path id="Path_1011" data-name="Path 1011" d="M432.8,18.157c-1.354.008-2.707,0-4.061,0a1.461,1.461,0,0,0-.6.083c-.22.105-.272.334-.273.8q0,3.194,0,6.387c0,.812,0,1.624,0,2.437,0,.594.176.759.777.763.357,0,.714,0,1.071,0s.568-.035.692-.156.159-.33.159-.679c0-.9,0-1.794,0-2.74h2.009a3.915,3.915,0,0,0,1.967-.47,3.246,3.246,0,0,0,1.556-2.715A3.168,3.168,0,0,0,432.8,18.157Zm-.043,4.294c-.72.033-1.441.009-2.18.009v-1.7c.771,0,1.529-.025,2.284.01a.741.741,0,0,1,.661.834A.84.84,0,0,1,432.754,22.451Z" transform="translate(-296.105 -12.565)" fill="#333" fill-rule="evenodd"/>
</svg>
