<svg xmlns="http://www.w3.org/2000/svg" xmlns:xlink="http://www.w3.org/1999/xlink" width="142" height="86" viewBox="0 0 142 86"><defs><style>.a{clip-path:url(#c);}.b,.e{fill:#003057;}.c{fill:#143157;}.d{fill:url(#a);}.e{fill-rule:evenodd;}.f{fill:#fff;}</style><linearGradient id="a" x1="0.153" y1="0.329" x2="0.67" y2="0.752" gradientUnits="objectBoundingBox"><stop offset="0" stop-color="#eb8f00"/><stop offset="1" stop-color="#eb7100"/></linearGradient><clipPath id="c"><rect width="142" height="86"/></clipPath></defs><g id="b" class="a"><rect class="f" width="142" height="86"/><g transform="translate(-919.799 -555.056)"><g transform="translate(1002.285 573.154)"><g transform="translate(0 0)"><path class="b" d="M1176.837,601.242H1130.87l2.106,6.487h6.342l-.235,0h37.754a.281.281,0,0,1,.051,0,1.458,1.458,0,0,1,.617.153,1.517,1.517,0,0,1,.854,1.333l-.024,38.686a1.521,1.521,0,0,1-1.522,1.517H1146.52l21.61,17.046V655.9h8.689a7.992,7.992,0,0,0,8-8l.027-38.662A8,8,0,0,0,1176.837,601.242Z" transform="translate(-1130.87 -601.242)"/></g></g><path class="c" d="M1188.906,689.458V692.5a.9.9,0,0,1-.9.9h-27.2l-1.571-4.838h28.77A.9.9,0,0,1,1188.906,689.458Z" transform="translate(-146.286 -82.569)"/><path class="c" d="M1206.213,656.265v3.042a.9.9,0,0,1-.9.9h-18.34l6.661-4.838h11.678A.9.9,0,0,1,1206.213,656.265Z" transform="translate(-163.593 -61.858)"/><path class="d" d="M1055.53,626.4l2.145,6.605-9.092-6.605-9.732-7.07-6.122-4.447L1007.783,633l1.164-3.584,2.97-9.138,3.265-10.05,2.13-6.554-2.066-1.5-3.735-2.713-12.247-8.9-6.9-5.012H1023.2l9.529-29.328,4.229,13.017,5.3,16.311h30.834l-24.946,18.122Z" transform="translate(-42.163)"/><g transform="translate(924.79 564.44)"><path class="e" d="M989.486,651.448" transform="translate(-965.158 -623.854)"/><path class="e" d="M969.09,593.275h-6.254a12.3,12.3,0,0,0-.648-1.783c-.089-.194-.178-.381-.275-.567a7.668,7.668,0,0,0-.494-.859,9.943,9.943,0,0,0-.867-1.231c-.105-.13-.21-.259-.324-.381a4.477,4.477,0,0,0-.332-.364,3.558,3.558,0,0,0-.348-.356,11.348,11.348,0,0,0-1.3-1.11c-.13-.1-.259-.195-.4-.283a12.671,12.671,0,0,0-2.82-1.442c-.146-.057-.292-.106-.446-.154-.373-.114-.761-.219-1.151-.3a3.079,3.079,0,0,0-.4-.072,2.384,2.384,0,0,0-.348-.057,3.332,3.332,0,0,0-.494-.065c-.243-.032-.486-.049-.729-.065-.21-.008-.421-.016-.64-.016s-.429.008-.64.016c-.243.016-.486.033-.729.065a3.326,3.326,0,0,0-.494.065,2.585,2.585,0,0,0-.349.057,3.673,3.673,0,0,0-.4.072c-.389.081-.77.187-1.151.3-.146.048-.291.1-.437.154a12.085,12.085,0,0,0-2.828,1.442c-.138.089-.267.186-.4.283a12.056,12.056,0,0,0-1.3,1.11,3.537,3.537,0,0,0-.349.356c-.113.113-.227.243-.332.364s-.219.251-.324.381a10.817,10.817,0,0,0-.867,1.231c-.178.275-.34.567-.494.859-.1.186-.186.373-.276.567a10.384,10.384,0,0,0-.648,1.783h-.008a12.422,12.422,0,0,0-.462,3.362v1.24l4.075,2.941,4.075,2.949.275.194,2.342,1.7H931.272v16.479c0,7.445,3.994,12.857,8.353,16.543A37.9,37.9,0,0,0,950,644.842a.008.008,0,0,1,.008.008,2.027,2.027,0,0,0,.227.081c.1.04.17.064.219.081a.135.135,0,0,0,.041.016l.332.114.333-.114a.127.127,0,0,0,.04-.016c.049-.016.121-.041.219-.081.065-.025.138-.049.227-.081a.008.008,0,0,0,.008-.008c.114-.04.235-.089.381-.154a37.893,37.893,0,0,0,10-6l-1.467,4.537-.518,1.588-1.24,3.808c-.373.2-.737.4-1.086.575s-.68.34-1,.494c-.057.024-.106.057-.162.081-.259.114-.5.227-.737.34-.283.13-.551.243-.794.349-.122.048-.235.105-.348.146-.494.211-.875.357-1.118.453-.048.016-.089.032-.122.041-.073.024-.121.049-.154.057l-2.463.851-2.454-.851c-.032-.008-.081-.032-.162-.057a1.1,1.1,0,0,0-.121-.041c-.243-.1-.624-.243-1.118-.453-.114-.041-.227-.1-.349-.146-.243-.105-.51-.219-.794-.349-.235-.113-.478-.227-.737-.34a1.066,1.066,0,0,0-.162-.081c-.316-.154-.648-.316-1-.494s-.713-.373-1.086-.575c-6.984-3.8-18.059-12.1-18.059-26.476v-22.96l7.462-2.544a18.163,18.163,0,0,1,.405-3.84c.04-.179.081-.357.122-.527a15.77,15.77,0,0,1,.583-1.945c.114-.316.235-.632.365-.939a13.869,13.869,0,0,1,.689-1.443c.129-.235.259-.47.389-.7s.275-.454.421-.673.291-.445.446-.656c.138-.2.291-.4.437-.6l.073-.1c.153-.195.3-.381.461-.559.17-.2.34-.4.519-.591s.348-.381.534-.567c.008-.008.008-.008.016-.008a14.535,14.535,0,0,1,1.167-1.07c.2-.17.4-.332.616-.494.178-.137.356-.275.543-.4.049-.032.089-.073.146-.105.194-.138.4-.276.607-.4q.256-.17.511-.316c.226-.138.445-.268.672-.389q.4-.219.8-.414a17.689,17.689,0,0,1,1.766-.737c.235-.089.478-.17.713-.243s.47-.146.705-.2c.146-.04.3-.081.445-.113.211-.057.43-.105.648-.146a.292.292,0,0,1,.081-.016c.187-.041.372-.081.567-.105.178-.032.356-.065.535-.089.243-.032.478-.057.721-.081.308-.032.608-.057.916-.073s.632-.025.956-.025.64.008.956.025.608.04.915.073c.235.017.478.049.721.081.178.024.356.057.534.089.195.024.381.065.568.105a.291.291,0,0,1,.081.016c.219.041.438.089.648.146.146.032.3.073.446.113.235.065.47.13.705.2s.478.154.713.243a18.843,18.843,0,0,1,1.766.737q.4.195.8.414c.227.121.445.251.672.389q.256.145.51.316c.211.129.413.267.608.4.049.033.105.073.146.105.187.13.365.267.543.4.21.163.413.324.615.494q.608.511,1.167,1.07c.187.186.373.381.551.575s.349.389.519.591c.162.178.308.364.462.559a.4.4,0,0,1,.073.1c.146.194.3.4.437.6.154.211.3.43.446.656s.283.446.421.673.259.461.389.7c.251.47.478.956.688,1.443.13.308.26.624.365.939a19.158,19.158,0,0,1,.584,1.945C968.961,592.6,969.033,592.935,969.09,593.275Z" transform="translate(-924.79 -578.068)"/></g><path class="e" d="M990.949,676.839a4.463,4.463,0,0,1-2.644,4.075l.711,8.545h-5.071l.714-8.545a4.465,4.465,0,0,1,1.821-8.542h0A4.466,4.466,0,0,1,990.949,676.839Z" transform="translate(-35.705 -72.469)"/></g></g></svg>