<svg xmlns="http://www.w3.org/2000/svg" xmlns:xlink="http://www.w3.org/1999/xlink" width="88" height="88" viewBox="0 0 88 88"><defs><style>.a{clip-path:url(#b);}.b{fill:#fff;}.c,.e{fill:#e97324;}.d{fill:#143157;}.d,.e{fill-rule:evenodd;}</style><clipPath id="b"><rect width="88" height="88"/></clipPath></defs><g id="a" class="a"><g transform="translate(14.993 3.043)"><path class="b" d="M483.806,1313.33l-25.814,5.688v23.192s5.249,26.253,25.378,26.689,26.253-25.814,26.253-25.814v-22.752Z" transform="translate(-454.896 -1291.294)"/><line class="c" x1="0.006" transform="translate(28.99 58.08)"/><path class="d" d="M472.168,1326.991a13.9,13.9,0,0,1,27.792,0v1.381l-13.9-2.961-13.895,2.968Zm34.591,2.834v-2.834a20.691,20.691,0,0,0-41.372,0v2.834l-8.317,1.781v23.8c0,22.883,25.2,31.938,26.27,32.313l2.74.956,2.737-.956c1.07-.379,26.267-9.431,26.267-32.313v-23.8Zm1.586,25.579c0,18.174-20.867,25.653-21.756,25.961l-.252.09-.258.094-.3-.094-.255-.09c-.879-.309-21.749-7.781-21.749-25.961v-18.362l22.293-4.752h0l22.266,4.752Z" transform="translate(-457.069 -1306.76)"/><path class="e" d="M465.713,1318.4" transform="translate(-436.723 -1279.36)"/><path class="e" d="M471.232,1327.918l.795,9.521h-5.638l.791-9.521a4.975,4.975,0,0,1,2.026-9.518h.01a4.976,4.976,0,0,1,2.029,9.518Z" transform="translate(-440.21 -1279.36)"/></g></g></svg>