<?xml version="1.0" encoding="utf-8"?>
<!-- Generator: Adobe Illustrator 26.0.1, SVG Export Plug-In . SVG Version: 6.00 Build 0)  -->
<svg version="1.1" id="Layer_1" xmlns="http://www.w3.org/2000/svg" xmlns:xlink="http://www.w3.org/1999/xlink" x="0px" y="0px"
	 width="18px" height="16px" viewBox="0 0 18 16" style="enable-background:new 0 0 18 16;" xml:space="preserve">
<style type="text/css">
	.st0{enable-background:new    ;}
	.st1{fill:#333333;}
</style>
<g class="st0">
	<path class="st1" d="M17.2,4c0.1,0.6,0.3,1.4,0.3,2.6l0,1.6l0,1.6c-0.1,1.2-0.2,2-0.3,2.6c-0.1,0.4-0.3,0.7-0.6,0.9
		c-0.3,0.3-0.6,0.5-1,0.6c-0.5,0.1-1.8,0.3-3.8,0.3l-2.8,0l-2.8,0c-2-0.1-3.3-0.2-3.8-0.3c-0.4-0.1-0.7-0.3-1-0.6s-0.5-0.6-0.6-0.9
		c-0.1-0.6-0.3-1.4-0.3-2.6l0-1.6c0-0.5,0-1,0-1.6c0.1-1.1,0.2-2,0.3-2.6c0.1-0.4,0.3-0.7,0.6-1s0.6-0.5,1-0.6
		c0.5-0.1,1.8-0.3,3.8-0.3l2.8,0l2.8,0c2,0.1,3.3,0.2,3.8,0.3c0.4,0.1,0.7,0.3,1,0.6C16.9,3.3,17.1,3.6,17.2,4z M7.2,10.7l4.5-2.6
		L7.2,5.6V10.7z"/>
</g>
</svg>
